<svg id="Layer_1" data-name="Layer 1" xmlns="http://www.w3.org/2000/svg" viewBox="0 0 219.27 219.27"><defs><style>.cls-1{fill:#f2f2f2;}.cls-2{fill:#484848;}.cls-3{fill:#ec6e4c;}</style></defs><path class="cls-1" d="M109.7,0A109.64,109.64,0,1,1,0,109.5,109.7,109.7,0,0,1,109.7,0ZM65.41,163.42l.15-.45a11.39,11.39,0,0,1,1.29-.17c3.22-.09,6.48.08,9.67-.28,14.14-1.59,23.88-8.94,28.67-22.48a49.46,49.46,0,0,0,2.53-19,8.68,8.68,0,0,1,.57-4.3,14.61,14.61,0,0,0,1.5-10.56,112.56,112.56,0,0,0-4.66-14.81c-7.12-17.65-17.87-33-30.66-47a4.77,4.77,0,0,0-6.88-.25,4.82,4.82,0,0,0-.07,7A166.12,166.12,0,0,1,82.21,69.57c7.7,11.18,14,23,17.65,36.19.53,1.9,1.07,3.89.11,5.73a18.16,18.16,0,0,0-2,9.72,43,43,0,0,1-.73,11.21c-1.1,5.43-3.22,10.37-7.28,14.27-4.63,4.45-10.41,6-16.62,6.4-3.1.18-6.23,0-9.31.32A9.59,9.59,0,0,0,56.55,158c-2.21,3.66-1.49,8.26,1.79,11.78a17.89,17.89,0,0,0,7.27,4.48,43,43,0,0,0,15,2.34c8.38,0,16.77-.24,25.16-.46a15.93,15.93,0,0,0,14.15-8.58,28.16,28.16,0,0,0,2.17-4.78,50.32,50.32,0,0,1,9.53-16.63c4.68-5.51,10.32-9.59,17.45-11.41a16,16,0,0,0,3.94-1.7c5.55-3.22,8.64-8.25,10.27-14.29.84-3.1,1.56-6.26.41-9.42a37.29,37.29,0,0,0-2.55-5.78c-3.41-6-8-11.13-12.88-16a5.23,5.23,0,0,0-2.86-1.29,4.53,4.53,0,0,0-4.78,2.66,4.82,4.82,0,0,0,.85,5.45c2.11,2.35,4.4,4.56,6.31,7.06,2.17,2.84,4.06,5.9,6,8.94a4.5,4.5,0,0,1,.73,2.83,26.63,26.63,0,0,1-1.62,6,10.55,10.55,0,0,1-7.41,6.58,26.43,26.43,0,0,0-3.84,1.33c-10,4.14-17.34,11.33-23,20.43A70.72,70.72,0,0,0,112.37,161c-1.33,3.71-4,5.55-8,5.59-7.07.06-14.13.35-21.2.42-4.84,0-9.68-.21-14.3-1.86A31.73,31.73,0,0,1,65.41,163.42ZM120.05,42.83A4.78,4.78,0,0,0,115.42,49c2.77,10.11,7.45,19.39,12.51,28.5a4.43,4.43,0,0,0,3.71,2.31,4.58,4.58,0,0,0,4.47-2.21,4.73,4.73,0,0,0,.1-5.11c-4.62-8.48-9-17.08-11.6-26.44A4.61,4.61,0,0,0,120.05,42.83Zm23.06,61.4a4.84,4.84,0,0,0-9.64-.72c-.54,5.93-3.61,9.88-9.14,12a4.84,4.84,0,0,0,3.21,9.13C136,122.19,143,113,143.11,104.23Z"/><path class="cls-2" d="M65.41,163.42a31.73,31.73,0,0,0,3.46,1.71c4.62,1.65,9.46,1.91,14.3,1.86,7.07-.07,14.13-.36,21.2-.42,4,0,6.67-1.88,8-5.59a70.72,70.72,0,0,1,6.22-13.45c5.62-9.1,12.93-16.29,23-20.43a26.43,26.43,0,0,1,3.84-1.33,10.55,10.55,0,0,0,7.41-6.58,26.63,26.63,0,0,0,1.62-6,4.5,4.5,0,0,0-.73-2.83c-1.9-3-3.79-6.1-6-8.94-1.91-2.5-4.2-4.71-6.31-7.06a4.82,4.82,0,0,1-.85-5.45,4.53,4.53,0,0,1,4.78-2.66,5.23,5.23,0,0,1,2.86,1.29c4.85,4.88,9.47,10,12.88,16a37.29,37.29,0,0,1,2.55,5.78c1.15,3.16.43,6.32-.41,9.42-1.63,6-4.72,11.07-10.27,14.29a16,16,0,0,1-3.94,1.7c-7.13,1.82-12.77,5.9-17.45,11.41A50.32,50.32,0,0,0,122,162.81a28.16,28.16,0,0,1-2.17,4.78,15.93,15.93,0,0,1-14.15,8.58c-8.39.22-16.78.43-25.16.46a43,43,0,0,1-15-2.34,17.89,17.89,0,0,1-7.27-4.48c-3.28-3.52-4-8.12-1.79-11.78A9.59,9.59,0,0,1,64,153.41c3.08-.34,6.21-.14,9.31-.32,6.21-.36,12-2,16.62-6.4,4.06-3.9,6.18-8.84,7.28-14.27A43,43,0,0,0,98,121.21a18.16,18.16,0,0,1,2-9.72c1-1.84.42-3.83-.11-5.73-3.62-13.16-10-25-17.65-36.19A166.12,166.12,0,0,0,67.52,51.11a4.82,4.82,0,0,1,.07-7,4.77,4.77,0,0,1,6.88.25c12.79,14,23.54,29.34,30.66,47a112.56,112.56,0,0,1,4.66,14.81,14.61,14.61,0,0,1-1.5,10.56,8.68,8.68,0,0,0-.57,4.3,49.46,49.46,0,0,1-2.53,19c-4.79,13.54-14.53,20.89-28.67,22.48-3.19.36-6.45.19-9.67.28a11.39,11.39,0,0,0-1.29.17Z"/><path class="cls-2" d="M120.05,42.83a4.61,4.61,0,0,1,4.56,3.22c2.64,9.36,7,18,11.6,26.44a4.73,4.73,0,0,1-.1,5.11,4.58,4.58,0,0,1-4.47,2.21,4.43,4.43,0,0,1-3.71-2.31c-5.06-9.11-9.74-18.39-12.51-28.5A4.78,4.78,0,0,1,120.05,42.83Z"/><path class="cls-3" d="M143.11,104.23c-.11,8.74-7.14,18-15.57,20.43a4.84,4.84,0,0,1-3.21-9.13c5.53-2.14,8.6-6.09,9.14-12a4.84,4.84,0,0,1,9.64.72Z"/></svg>