<svg id="Layer_1" data-name="Layer 1" xmlns="http://www.w3.org/2000/svg" viewBox="0 0 219.27 219.27"><defs><style>.cls-1{fill:#f2f2f2;}.cls-2{fill:#484848;}.cls-3{fill:#ec6e4c;}</style></defs><path class="cls-1" d="M109.69,0A109.64,109.64,0,1,1,0,109.52,109.69,109.69,0,0,1,109.69,0ZM78.93,118.16c.56-.45,1-.87,1.54-1.24a54.92,54.92,0,0,1,5.94-4.19,29.58,29.58,0,0,1,19.87-2.87c5.54,1,10.44,3.26,14.11,7.69A11.72,11.72,0,0,0,125.2,121c4.17,1.65,8.21-.47,8.93-4.76a16.66,16.66,0,0,0,0-4.29c-.34-3.53-2.17-6.56-3.33-9.82-1.69-4.79-3.39-9.6-3.65-14.7A37.5,37.5,0,0,0,124,74.71a17.69,17.69,0,0,0-5.75-7.82c-2-1.43-4.13-2.44-6.69-2A28.23,28.23,0,0,0,94.36,74.7a3.27,3.27,0,0,1-1.16,1,46.07,46.07,0,0,1-4.52,1.51A4,4,0,0,1,84,75.33c-1.75-2.72-3.43-5.48-5.17-8.2a3,3,0,0,1,0-3.25,30.93,30.93,0,0,1,9.38-10.57,5.52,5.52,0,0,1,3-1c3.11-.07,6.23,0,9.33.16a74.34,74.34,0,0,1,18.21,3.31,5.36,5.36,0,0,1,3.65,3.48c1.7,4.89,4.9,8.71,8.43,12.35,3.28,3.38,6.58,6.76,9.6,10.36,4.6,5.47,9,11.12,13.44,16.71a5,5,0,0,0,5.35,2,4.81,4.81,0,0,0,2.4-7.85C153.77,83,146.15,72.83,137,64.05a19.41,19.41,0,0,1-5.11-7.16c-2-5.33-5.33-9-11-10.61A101,101,0,0,0,91,42.59a13.41,13.41,0,0,0-7.79,2.34A39.35,39.35,0,0,0,69.65,60.61a10.47,10.47,0,0,0,.11,9.92,117.54,117.54,0,0,0,7.45,11.7A12.11,12.11,0,0,0,87.46,87c4.63,0,8.7-1.81,12.66-4a2,2,0,0,0,.63-.7A18.21,18.21,0,0,1,111,75a2,2,0,0,1,2.62.9,21.86,21.86,0,0,1,3.63,10.41,66.42,66.42,0,0,0,3.38,16.35c.32,1,.65,1.92,1,3-.27-.12-.38-.16-.48-.22-12.62-7.4-25.55-7.72-38.69-1.59a3.09,3.09,0,0,1-3.73-.34c-9.4-6.74-20.22-8.25-31.41-8.12-2.15,0-3.93,2.18-4.06,4.36-.18,3,2,5.22,5.22,5.25a51.72,51.72,0,0,1,19.23,3.34,18.09,18.09,0,0,1,8.48,6.2C77.08,115.73,78,116.89,78.93,118.16Zm36.37,40.27A122.42,122.42,0,0,0,137,156.51c8.57-1.61,16.79-4.21,24.26-8.83,6.16-3.82,11.21-8.68,14.46-15.28a12.39,12.39,0,0,0,1.29-8.23,59,59,0,0,0-5.09-14.27,4.8,4.8,0,0,0-6.46-2.36c-2.48,1.16-3.34,3.93-2.26,6.61,1.46,3.66,2.82,7.36,4.11,11.08a3.28,3.28,0,0,1-.12,2.41,38,38,0,0,1-3.88,5.87c-3.39,4-7.8,6.69-12.55,8.79-9.72,4.29-20,5.92-30.54,6.2-6.7.17-13.42-.07-20.11-.5-5.2-.33-10.4-1.06-15.55-1.91a24.59,24.59,0,0,0-14,1.32C60.35,151.74,55,160.24,51.36,170.13c-1,2.8,1.55,5.78,4.56,5.83a4.79,4.79,0,0,0,4.7-3.24,36.61,36.61,0,0,1,6.8-11.47c4.24-4.55,9.22-6.68,15.67-5.54A187.29,187.29,0,0,0,115.3,158.43Zm-14.53-42.75a27.75,27.75,0,0,0-16.5,6.39c-2.39,1.88-2.83,4.76-1.13,7s4.64,2.37,7.15.65a30,30,0,0,1,6.24-3.46c4.86-1.85,9.25-.81,13,2.84.55.52,1,1.11,1.61,1.6a4.82,4.82,0,0,0,6.54-.15,4.68,4.68,0,0,0,.45-6.41C113.66,118.87,108.1,115.78,100.77,115.68Z"/><path class="cls-2" d="M78.93,118.16c-.94-1.27-1.85-2.43-2.69-3.64a18.09,18.09,0,0,0-8.48-6.2A51.72,51.72,0,0,0,48.53,105c-3.21,0-5.4-2.22-5.22-5.25.13-2.18,1.91-4.34,4.06-4.36,11.19-.13,22,1.38,31.41,8.12a3.09,3.09,0,0,0,3.73.34c13.14-6.13,26.07-5.81,38.69,1.59.1.06.21.1.48.22-.37-1.09-.7-2-1-3a66.42,66.42,0,0,1-3.38-16.35,21.86,21.86,0,0,0-3.63-10.41A2,2,0,0,0,111,75a18.21,18.21,0,0,0-10.28,7.39,2,2,0,0,1-.63.7c-4,2.15-8,4-12.66,4a12.11,12.11,0,0,1-10.25-4.79,117.54,117.54,0,0,1-7.45-11.7,10.47,10.47,0,0,1-.11-9.92A39.35,39.35,0,0,1,83.19,44.93,13.41,13.41,0,0,1,91,42.59a101,101,0,0,1,29.82,3.69c5.71,1.66,9.06,5.28,11,10.61A19.41,19.41,0,0,0,137,64.05c9.2,8.78,16.82,18.9,24.63,28.87a4.81,4.81,0,0,1-2.4,7.85,5,5,0,0,1-5.35-2C149.37,93.14,145,87.49,140.39,82c-3-3.6-6.32-7-9.6-10.36-3.53-3.64-6.73-7.46-8.43-12.35a5.36,5.36,0,0,0-3.65-3.48,74.34,74.34,0,0,0-18.21-3.31c-3.1-.19-6.22-.23-9.33-.16a5.52,5.52,0,0,0-3,1A30.93,30.93,0,0,0,78.8,63.88a3,3,0,0,0,0,3.25c1.74,2.72,3.42,5.48,5.17,8.2a4,4,0,0,0,4.66,1.86,46.07,46.07,0,0,0,4.52-1.51,3.27,3.27,0,0,0,1.16-1,28.23,28.23,0,0,1,17.22-9.78c2.56-.47,4.71.54,6.69,2A17.69,17.69,0,0,1,124,74.71a37.5,37.5,0,0,1,3.09,12.71c.26,5.1,2,9.91,3.65,14.7,1.16,3.26,3,6.29,3.33,9.82a16.66,16.66,0,0,1,0,4.29c-.72,4.29-4.76,6.41-8.93,4.76a11.72,11.72,0,0,1-4.81-3.44c-3.67-4.43-8.57-6.68-14.11-7.69a29.58,29.58,0,0,0-19.87,2.87,54.92,54.92,0,0,0-5.94,4.19C80,117.29,79.49,117.71,78.93,118.16Z"/><path class="cls-2" d="M115.3,158.43a187.29,187.29,0,0,1-32.21-2.72c-6.45-1.14-11.43,1-15.67,5.54a36.61,36.61,0,0,0-6.8,11.47,4.79,4.79,0,0,1-4.7,3.24c-3-.05-5.58-3-4.56-5.83,3.59-9.89,9-18.39,19.17-22.72a24.59,24.59,0,0,1,14-1.32c5.15.85,10.35,1.58,15.55,1.91,6.69.43,13.41.67,20.11.5,10.51-.28,20.82-1.91,30.54-6.2,4.75-2.1,9.16-4.78,12.55-8.79a38,38,0,0,0,3.88-5.87,3.28,3.28,0,0,0,.12-2.41c-1.29-3.72-2.65-7.42-4.11-11.08-1.08-2.68-.22-5.45,2.26-6.61a4.8,4.8,0,0,1,6.46,2.36A59,59,0,0,1,177,124.17a12.39,12.39,0,0,1-1.29,8.23c-3.25,6.6-8.3,11.46-14.46,15.28-7.47,4.62-15.69,7.22-24.26,8.83A122.42,122.42,0,0,1,115.3,158.43Z"/><path class="cls-3" d="M100.77,115.68c7.33.1,12.89,3.19,17.35,8.42a4.68,4.68,0,0,1-.45,6.41,4.82,4.82,0,0,1-6.54.15c-.57-.49-1.06-1.08-1.61-1.6-3.74-3.65-8.13-4.69-13-2.84a30,30,0,0,0-6.24,3.46c-2.51,1.72-5.43,1.58-7.15-.65s-1.26-5.08,1.13-7A27.75,27.75,0,0,1,100.77,115.68Z"/></svg>