<svg id="Layer_1" data-name="Layer 1" xmlns="http://www.w3.org/2000/svg" viewBox="0 0 219.27 219.27"><defs><style>.cls-1{fill:#f2f2f2;}.cls-2{fill:#484848;}.cls-3{fill:#ec6e4c;}</style></defs><path class="cls-1" d="M109.66,0A109.64,109.64,0,1,1,0,109.55,109.7,109.7,0,0,1,109.66,0Zm25.87,68.21c-.54-5.76-2.76-8-8.33-8.59a1.29,1.29,0,0,1-.83-.64,8.27,8.27,0,0,0-8.68-4.85,1.56,1.56,0,0,1-1.21-.54c-2-2.88-4.78-4.36-8.23-3.72-1.83.34-2.63-.29-3.8-1.49C101.17,45,97.59,42.23,92.31,43,85.44,44.09,80.86,49,81,56a42.77,42.77,0,0,0,1.21,7.4,8.44,8.44,0,0,1,0,4.8,4.79,4.79,0,0,0,8.62,4,13.14,13.14,0,0,0,1.45-4.49c.38-2.77-.33-5.46-1-8.15a14.71,14.71,0,0,1-.35-4.81c.15-1.51,2.46-2.48,3.83-1.76a6.59,6.59,0,0,1,3.86,4.71,5.87,5.87,0,0,0,5.34,5,6,6,0,0,0,5-2.24c2,3.21,4.91,4.36,8.6,3.79A6.81,6.81,0,0,0,125.37,70c-.26,2.48.1,4.6,1.76,6.31s3.78,2,6.32,1.86l-1.37,3.21-.67-.39c-8.94-5.42-18.59-8.42-29.11-8.12-9.86.28-16.68,5.3-20.77,14.09a17.12,17.12,0,0,0-1.17,9.53c.81,6,4.25,10.28,9.42,13.24,6.56,3.75,13.74,5,21.18,5.14a4.73,4.73,0,0,0,4.83-4.62,4.86,4.86,0,0,0-4.68-5,70.77,70.77,0,0,1-7.14-.74,25.83,25.83,0,0,1-10.68-4,8.18,8.18,0,0,1-2.35-10.77,13,13,0,0,1,11.87-7.19A43.8,43.8,0,0,1,125.92,89c1.79,1.06,3.36,2.49,3.36,4.77a15.52,15.52,0,0,1-.7,4.09c-1.44,5.11-3.1,10.15-4.41,15.28-3.68,14.39-7.29,28.79-7.09,43.83a8.14,8.14,0,0,1-3.79,7.37,11.58,11.58,0,0,1-9.22,1.38c-3.3-.86-5.58-5.08-5-9a16.4,16.4,0,0,1,4.78-9.21c2.59-2.57,5.49-4.85,8.31-7.19a4.91,4.91,0,0,0,1.12-6.64,4.72,4.72,0,0,0-6.46-1.42c-6.18,4-11.46,8.93-14.9,15.58a19.93,19.93,0,0,0-2.11,14c1.46,6.37,4.8,11.17,11.29,13.08a20.8,20.8,0,0,0,16.24-1.77c6.25-3.41,9-9.05,9.44-15.94.21-3.23.07-6.48.37-9.69a143.9,143.9,0,0,1,4-22.48c2.06-8.07,4.34-16.09,6.61-24.1A22.68,22.68,0,0,0,139,91.86a7.13,7.13,0,0,1,1.27-5.34,13.29,13.29,0,0,0,2.47-6.15,17.39,17.39,0,0,0,0-6C141.9,70.68,139.17,68.83,135.53,68.21ZM100.34,126c-.21-2-.3-3.82-.63-5.61a4.73,4.73,0,0,0-9.06-.6,11.49,11.49,0,0,0-.24,3.17,43.66,43.66,0,0,1,0,5.12,5,5,0,0,0,3.69,5.85,4.73,4.73,0,0,0,5.65-3.57A39.15,39.15,0,0,0,100.34,126Z"/><path class="cls-2" d="M135.53,68.21c3.64.62,6.37,2.47,7.18,6.14a17.39,17.39,0,0,1,0,6,13.29,13.29,0,0,1-2.47,6.15A7.13,7.13,0,0,0,139,91.86a22.68,22.68,0,0,1-1.15,9.08c-2.27,8-4.55,16-6.61,24.1a143.9,143.9,0,0,0-4,22.48c-.3,3.21-.16,6.46-.37,9.69-.44,6.89-3.19,12.53-9.44,15.94a20.8,20.8,0,0,1-16.24,1.77c-6.49-1.91-9.83-6.71-11.29-13.08a19.93,19.93,0,0,1,2.11-14c3.44-6.65,8.72-11.57,14.9-15.58a4.72,4.72,0,0,1,6.46,1.42,4.91,4.91,0,0,1-1.12,6.64c-2.82,2.34-5.72,4.62-8.31,7.19a16.4,16.4,0,0,0-4.78,9.21c-.59,3.88,1.69,8.1,5,9a11.58,11.58,0,0,0,9.22-1.38,8.14,8.14,0,0,0,3.79-7.37c-.2-15,3.41-29.44,7.09-43.83,1.31-5.13,3-10.17,4.41-15.28a15.52,15.52,0,0,0,.7-4.09c0-2.28-1.57-3.71-3.36-4.77a43.8,43.8,0,0,0-23.11-6.46,13,13,0,0,0-11.87,7.19,8.18,8.18,0,0,0,2.35,10.77,25.83,25.83,0,0,0,10.68,4,70.77,70.77,0,0,0,7.14.74,4.86,4.86,0,0,1,4.68,5,4.73,4.73,0,0,1-4.83,4.62c-7.44-.16-14.62-1.39-21.18-5.14-5.17-3-8.61-7.19-9.42-13.24a17.12,17.12,0,0,1,1.17-9.53c4.09-8.79,10.91-13.81,20.77-14.09,10.52-.3,20.17,2.7,29.11,8.12l.67.39,1.37-3.21c-2.54.18-4.67-.16-6.32-1.86s-2-3.83-1.76-6.31a6.81,6.81,0,0,1-7.83-5.74c-3.69.57-6.59-.58-8.6-3.79a6,6,0,0,1-5,2.24,5.87,5.87,0,0,1-5.34-5,6.59,6.59,0,0,0-3.86-4.71c-1.37-.72-3.68.25-3.83,1.76a14.71,14.71,0,0,0,.35,4.81c.66,2.69,1.37,5.38,1,8.15a13.14,13.14,0,0,1-1.45,4.49,4.79,4.79,0,0,1-8.62-4,8.44,8.44,0,0,0,0-4.8A42.77,42.77,0,0,1,81,56C80.86,49,85.44,44.09,92.31,43c5.28-.8,8.86,2,12.14,5.35,1.17,1.2,2,1.83,3.8,1.49,3.45-.64,6.21.84,8.23,3.72a1.56,1.56,0,0,0,1.21.54A8.27,8.27,0,0,1,126.37,59a1.29,1.29,0,0,0,.83.64C132.77,60.22,135,62.45,135.53,68.21Z"/><path class="cls-3" d="M100.34,126a39.15,39.15,0,0,1-.63,4.36,4.73,4.73,0,0,1-5.65,3.57,5,5,0,0,1-3.69-5.85,43.66,43.66,0,0,0,0-5.12,11.49,11.49,0,0,1,.24-3.17,4.73,4.73,0,0,1,9.06.6C100,122.16,100.13,124,100.34,126Z"/></svg>