<svg id="Layer_1" data-name="Layer 1" xmlns="http://www.w3.org/2000/svg" viewBox="0 0 219.27 219.27"><defs><style>.cls-1{fill:#f2f2f2;}.cls-2{fill:#484848;}.cls-3{fill:#ec6e4c;}</style></defs><path class="cls-1" d="M109.69,0A109.64,109.64,0,1,1,0,109.52,109.7,109.7,0,0,1,109.69,0ZM135.8,105c0-.34,0-.62.08-.89.67-5.77-3.34-11.56-7.77-13.26a1.77,1.77,0,0,1-1.32-2.08,12.8,12.8,0,0,0-9.74-13,14.63,14.63,0,0,0-9,.59c-5.15,2-10.23,4.27-15.31,6.49a4.42,4.42,0,0,0-2.72,3.94,4.81,4.81,0,0,0,6.81,4.8c4.49-1.86,8.94-3.83,13.45-5.68a13.06,13.06,0,0,1,3.45-.82,2.81,2.81,0,0,1,3,1.87,3.11,3.11,0,0,1-.55,3.66,8.26,8.26,0,0,1-2.35,1.59c-3.09,1.47-6.23,2.86-9.35,4.29-2.83,1.29-4,4-2.82,6.56s4,3.53,6.77,2.29,5.38-2.42,8.09-3.6a49.42,49.42,0,0,1,5.31-2.13c1.88-.58,3,.08,3.92,1.82a3,3,0,0,1-1,4,12.08,12.08,0,0,1-2.7,1.51c-3.25,1.41-6.54,2.75-9.8,4.14-2.84,1.21-4,3.91-2.94,6.51s3.87,3.59,6.74,2.41c2.36-1,4.7-2,7.06-3s4.86-2,7.36-2.82c1.94-.62,3.09.07,3.93,1.93a3.4,3.4,0,0,1-1.16,4.43,8.77,8.77,0,0,1-1.59.8c-4.75,2-9.49,4-14.26,5.91a19,19,0,0,1-9.92,1.66,4.92,4.92,0,0,0-5.67,4.1,4.83,4.83,0,0,0,4.19,5.46,27.39,27.39,0,0,0,14.63-2.09c8.72-3.53,17.38-7.2,26.11-10.72,5.36-2.16,10.78-4.17,16.2-6.18a2.86,2.86,0,0,1,3.45,1.18,2.75,2.75,0,0,1-.51,3.88,9.49,9.49,0,0,1-2.52,1.56q-15.69,6.66-31.42,13.26-7.71,3.25-15.43,6.51a4.83,4.83,0,0,0-3.11,5.56c.75,3.2,3.8,4.66,7,3.3q19.74-8.31,39.46-16.65a104.84,104.84,0,0,0,9.63-4.24c6.45-3.51,8.72-10.24,5.92-16.74-2.6-6-9.13-8.86-15.92-6.71-3.61,1.14-7.12,2.58-10.67,3.91-1.44.54-2.85,1.15-4.28,1.73C142.08,108.9,140.8,107.29,135.8,105ZM53.48,56.45c3.36-2.33,5.9-2,8.38,1a13.42,13.42,0,0,1,1.07,1.44A36.4,36.4,0,0,1,69,77.16a21.43,21.43,0,0,0,5.23,13.58c2.11,2.4,4.07,4.93,6.19,7.31a23.16,23.16,0,0,1,4.37,7.51,48.93,48.93,0,0,1,2.63,17.3,4.83,4.83,0,1,0,9.66,0,59.27,59.27,0,0,0-1.22-13.81c-1.29-6-3.39-11.65-7.31-16.47-2-2.42-3.93-4.84-6.06-7.11a13.86,13.86,0,0,1-3.85-9.28,45.76,45.76,0,0,0-7.21-22.17,20.08,20.08,0,0,0-6.24-6.53c-5.56-3.58-12.46-3-18.12,1.59a10.84,10.84,0,0,0-3,3.64A8.37,8.37,0,0,0,45.46,62c5.47,6.78,6,14.41,3.1,22.13a39.33,39.33,0,0,0-2.71,15.17,76,76,0,0,0,2.09,15.15c.63,2.75,0,5-2.47,6.69a5.76,5.76,0,0,0-1.78,2.18,4.8,4.8,0,0,0,6.92,6c5-3.17,7.55-7.79,7.18-13.69-.2-3.2-1.16-6.35-1.57-9.55-.81-6.26-1.24-12.38,1.46-18.54S60.55,74.51,59,67.82A29,29,0,0,0,53.48,56.45ZM71,156.45l0,.31a40.23,40.23,0,0,0-12.13,1.89A37.29,37.29,0,0,0,45,166.73a4.84,4.84,0,0,0,2,8.38,5.18,5.18,0,0,0,4.82-1.48c7.7-6.67,16.6-8.52,26.39-6.19,3.7.88,7.41,1.32,11,.12,5.35-1.81,10.59-3.95,15.79-6.17,2.31-1,3-3.91,2-6.19a4.78,4.78,0,0,0-6.15-2.45c-3.48,1.38-6.93,2.84-10.38,4.29A15,15,0,0,1,81,158.17C77.73,157.42,74.36,157,71,156.45Zm-17.79-5.9c7.35-.43,12.77-5.38,14.53-12.35.75-3,1.73-5.52,4-7.67a4.74,4.74,0,0,0-1.85-7.82,4.69,4.69,0,0,0-4.91,1,18.31,18.31,0,0,0-6.35,11c-.53,3.19-2.58,6-6.16,6.26a2.86,2.86,0,0,0-.7.17,4.83,4.83,0,0,0,1.44,9.47Z"/><path class="cls-2" d="M135.8,105c5,2.26,6.28,3.87,8.83,11.1,1.43-.58,2.84-1.19,4.28-1.73,3.55-1.33,7.06-2.77,10.67-3.91,6.79-2.15,13.32.68,15.92,6.71,2.8,6.5.53,13.23-5.92,16.74a104.84,104.84,0,0,1-9.63,4.24q-19.72,8.35-39.46,16.65c-3.23,1.36-6.28-.1-7-3.3a4.83,4.83,0,0,1,3.11-5.56q7.71-3.27,15.43-6.51,15.72-6.63,31.42-13.26a9.49,9.49,0,0,0,2.52-1.56,2.75,2.75,0,0,0,.51-3.88,2.86,2.86,0,0,0-3.45-1.18c-5.42,2-10.84,4-16.2,6.18-8.73,3.52-17.39,7.19-26.11,10.72a27.39,27.39,0,0,1-14.63,2.09,4.83,4.83,0,0,1-4.19-5.46,4.92,4.92,0,0,1,5.67-4.1,19,19,0,0,0,9.92-1.66c4.77-1.92,9.51-3.92,14.26-5.91a8.77,8.77,0,0,0,1.59-.8,3.4,3.4,0,0,0,1.16-4.43c-.84-1.86-2-2.55-3.93-1.93-2.5.8-4.92,1.84-7.36,2.82s-4.7,2-7.06,3c-2.87,1.18-5.63.18-6.74-2.41s.1-5.3,2.94-6.51c3.26-1.39,6.55-2.73,9.8-4.14a12.08,12.08,0,0,0,2.7-1.51,3,3,0,0,0,1-4c-.87-1.74-2-2.4-3.92-1.82a49.42,49.42,0,0,0-5.31,2.13c-2.71,1.18-5.39,2.41-8.09,3.6s-5.63.28-6.77-2.29,0-5.27,2.82-6.56c3.12-1.43,6.26-2.82,9.35-4.29a8.26,8.26,0,0,0,2.35-1.59,3.11,3.11,0,0,0,.55-3.66,2.81,2.81,0,0,0-3-1.87,13.06,13.06,0,0,0-3.45.82c-4.51,1.85-9,3.82-13.45,5.68a4.81,4.81,0,0,1-6.81-4.8,4.42,4.42,0,0,1,2.72-3.94c5.08-2.22,10.16-4.45,15.31-6.49a14.63,14.63,0,0,1,9-.59,12.8,12.8,0,0,1,9.74,13,1.77,1.77,0,0,0,1.32,2.08c4.43,1.7,8.44,7.49,7.77,13.26C135.85,104.41,135.83,104.69,135.8,105Z"/><path class="cls-2" d="M53.48,56.45A29,29,0,0,1,59,67.82c1.56,6.69,1.41,13.42-1.31,19.64S55.41,99.74,56.22,106c.41,3.2,1.37,6.35,1.57,9.55.37,5.9-2.18,10.52-7.18,13.69a4.8,4.8,0,0,1-6.92-6,5.76,5.76,0,0,1,1.78-2.18c2.46-1.68,3.1-3.94,2.47-6.69a76,76,0,0,1-2.09-15.15,39.33,39.33,0,0,1,2.71-15.17c2.92-7.72,2.37-15.35-3.1-22.13a8.37,8.37,0,0,1-1.36-9.19,10.84,10.84,0,0,1,3-3.64c5.66-4.61,12.56-5.17,18.12-1.59a20.08,20.08,0,0,1,6.24,6.53,45.76,45.76,0,0,1,7.21,22.17,13.86,13.86,0,0,0,3.85,9.28c2.13,2.27,4.1,4.69,6.06,7.11,3.92,4.82,6,10.48,7.31,16.47a59.27,59.27,0,0,1,1.22,13.81,4.83,4.83,0,1,1-9.66,0,48.93,48.93,0,0,0-2.63-17.3,23.16,23.16,0,0,0-4.37-7.51c-2.12-2.38-4.08-4.91-6.19-7.31A21.43,21.43,0,0,1,69,77.16a36.4,36.4,0,0,0-6.07-18.29,13.42,13.42,0,0,0-1.07-1.44C59.38,54.44,56.84,54.12,53.48,56.45Z"/><path class="cls-2" d="M71,156.45c3.33.56,6.7,1,10,1.72A15,15,0,0,0,90.46,157c3.45-1.45,6.9-2.91,10.38-4.29A4.78,4.78,0,0,1,107,155.2c1.06,2.28.32,5.21-2,6.19-5.2,2.22-10.44,4.36-15.79,6.17-3.57,1.2-7.28.76-11-.12-9.79-2.33-18.69-.48-26.39,6.19A5.18,5.18,0,0,1,47,175.11a4.84,4.84,0,0,1-2-8.38,37.29,37.29,0,0,1,13.85-8.08A40.23,40.23,0,0,1,71,156.76Z"/><path class="cls-3" d="M53.24,150.55a4.83,4.83,0,0,1-1.44-9.47,2.86,2.86,0,0,1,.7-.17c3.58-.23,5.63-3.07,6.16-6.26a18.31,18.31,0,0,1,6.35-11,4.69,4.69,0,0,1,4.91-1,4.74,4.74,0,0,1,1.85,7.82c-2.27,2.15-3.25,4.71-4,7.67C66,145.17,60.59,150.12,53.24,150.55Z"/></svg>