<svg id="Layer_1" data-name="Layer 1" xmlns="http://www.w3.org/2000/svg" viewBox="0 0 219.27 219.27"><defs><style>.cls-1{fill:#f2f2f2;}.cls-2{fill:#484848;}.cls-3{fill:#ec6e4c;}</style></defs><path class="cls-1" d="M219.27,109.69A109.64,109.64,0,1,1,109.75,0,109.7,109.7,0,0,1,219.27,109.69ZM91.63,156a1.43,1.43,0,0,1,.1.38c-.15,5.86,1.57,11.35,3.4,16.8a4.79,4.79,0,0,0,6.17,3.06,4.86,4.86,0,0,0,3-6.2c-.44-1.45-.92-2.89-1.33-4.35-1.06-3.73-2-7.46-1.12-11.41.45-1.94.63-3.94.92-5.91.54-3.59-2-5.65-5.34-4.33-.41.16-.8.38-1.2.55A21.12,21.12,0,0,1,85,146.34c-4.32-.53-7.2-3.55-8.31-8.46a38.31,38.31,0,0,1-.56-12.27c.33-3.41-.93-6.39-4.78-6.56-2.68-.11-4.09-2.72-3.23-5.27a11.6,11.6,0,0,1,.71-1.52c1.57-3,3.2-5.89,4.71-8.88a7.86,7.86,0,0,0-.35-8.4,7.3,7.3,0,0,1-.82-1.85A22,22,0,0,1,71.8,82c1.28-6.72,4.67-12.3,9.32-17.23,10.59-11.2,29.63-14.6,43.33-10,6.29,2.11,12.38,4.72,16.92,9.78,8.46,9.44,11.86,20.52,10,33.09a24.45,24.45,0,0,1-3.57,10A31.72,31.72,0,0,0,142.62,122a83.81,83.81,0,0,0-.26,10.75c.11,5,.41,10,.71,15a4.84,4.84,0,0,0,4.59,4.43,4.78,4.78,0,0,0,4.9-3.6,12.32,12.32,0,0,0,.09-3.1c-.23-5.82-.56-11.64-.71-17.47a26.41,26.41,0,0,1,2.71-12.87c.66-1.31,1.61-2.47,2.26-3.77a42.88,42.88,0,0,0,4.18-26.53c-2.65-16.37-10.5-29.08-26.06-36.27-7.81-3.61-15.89-5.85-24.52-5.42A68.36,68.36,0,0,0,99,44.56c-16.57,3.71-28.48,13.25-34.9,29.09a31.62,31.62,0,0,0,.16,25.4,1.86,1.86,0,0,1-.16,1.41c-1.44,2.8-3,5.53-4.4,8.37-3.46,7.16-1.14,14.48,5.77,18.37a1.35,1.35,0,0,1,.8,1.4,39.51,39.51,0,0,0,1.25,12.58c2.41,8,7.41,13.45,16,14.72C86.17,156.29,88.92,156,91.63,156ZM147.9,89.72c-.17-1.06-.38-2.77-.73-4.44a34.22,34.22,0,0,0-8.36-16.67,5.11,5.11,0,0,0-3.4-1.8,4.86,4.86,0,0,0-4.83,2.66,4.71,4.71,0,0,0,.8,5.44,19.66,19.66,0,0,1,4.56,7.1,85.62,85.62,0,0,1,2.24,9.13,5,5,0,0,0,5.31,4.26C146,95.22,148,93,147.9,89.72Zm-36.7-33,0,.23h-1.07c-3,0-5.12,2-5.17,4.66s2.06,4.78,5,5q4.05.28,8.06.92a5,5,0,0,0,5.84-3.7,4.68,4.68,0,0,0-3.69-5.65C117.19,57.58,114.18,57.21,111.2,56.74Z"/><path class="cls-2" d="M91.63,156c-2.71,0-5.46.33-8.11-.06-8.58-1.27-13.58-6.67-16-14.72a39.51,39.51,0,0,1-1.25-12.58,1.35,1.35,0,0,0-.8-1.4c-6.91-3.89-9.23-11.21-5.77-18.37,1.37-2.84,3-5.57,4.4-8.37a1.86,1.86,0,0,0,.16-1.41,31.62,31.62,0,0,1-.16-25.4C70.53,57.81,82.44,48.27,99,44.56a68.36,68.36,0,0,1,11.5-1.44c8.63-.43,16.71,1.81,24.52,5.42,15.56,7.19,23.41,19.9,26.06,36.27a42.88,42.88,0,0,1-4.18,26.53c-.65,1.3-1.6,2.46-2.26,3.77A26.41,26.41,0,0,0,151.94,128c.15,5.83.48,11.65.71,17.47a12.32,12.32,0,0,1-.09,3.1,4.78,4.78,0,0,1-4.9,3.6,4.84,4.84,0,0,1-4.59-4.43c-.3-5-.6-10-.71-15a83.81,83.81,0,0,1,.26-10.75,31.72,31.72,0,0,1,5.17-14.38,24.45,24.45,0,0,0,3.57-10c1.87-12.57-1.53-23.65-10-33.09-4.54-5.06-10.63-7.67-16.92-9.78-13.7-4.61-32.74-1.21-43.33,10-4.65,4.93-8,10.51-9.32,17.23a22,22,0,0,0,.6,11.12A7.3,7.3,0,0,0,73.22,95a7.86,7.86,0,0,1,.35,8.4c-1.51,3-3.14,5.92-4.71,8.88a11.6,11.6,0,0,0-.71,1.52c-.86,2.55.55,5.16,3.23,5.27,3.85.17,5.11,3.15,4.78,6.56a38.31,38.31,0,0,0,.56,12.27c1.11,4.91,4,7.93,8.31,8.46a21.12,21.12,0,0,0,11.21-1.79c.4-.17.79-.39,1.2-.55,3.34-1.32,5.88.74,5.34,4.33-.29,2-.47,4-.92,5.91-.9,3.95.06,7.68,1.12,11.41.41,1.46.89,2.9,1.33,4.35a4.86,4.86,0,0,1-3,6.2,4.79,4.79,0,0,1-6.17-3.06c-1.83-5.45-3.55-10.94-3.4-16.8A1.43,1.43,0,0,0,91.63,156Z"/><path class="cls-2" d="M147.9,89.72c.06,3.32-1.86,5.5-4.41,5.68a5,5,0,0,1-5.31-4.26A85.62,85.62,0,0,0,135.94,82a19.66,19.66,0,0,0-4.56-7.1,4.71,4.71,0,0,1-.8-5.44,4.86,4.86,0,0,1,4.83-2.66,5.11,5.11,0,0,1,3.4,1.8,34.22,34.22,0,0,1,8.36,16.67C147.52,87,147.73,88.66,147.9,89.72Z"/><path class="cls-3" d="M111.2,56.74c3,.47,6,.84,9,1.44a4.68,4.68,0,0,1,3.69,5.65,5,5,0,0,1-5.84,3.7q-4-.63-8.06-.92c-3-.2-5.07-2.19-5-5S107.13,57,110.09,57h1.07Z"/></svg>