<svg id="Layer_1" data-name="Layer 1" xmlns="http://www.w3.org/2000/svg" viewBox="0 0 219.27 219.27"><defs><style>.cls-1{fill:#484848;}.cls-2{fill:#f2f2f2;}.cls-3{fill:#ec6e4c;}</style></defs><path class="cls-1" d="M109.5,0A109.64,109.64,0,1,1,0,109.71,109.69,109.69,0,0,1,109.5,0Zm3.81,132c1.18,2.49,2.8,4.88,3.4,7.5s.17,5.48.19,8.23a6,6,0,1,0,12.07,0c0-1.8,0-3.6,0-5.39a2,2,0,0,1,.66-1.38q9.85-7.72,19.78-15.35a2.19,2.19,0,0,1,1.52-.35c11.61,2.14,21.55-4.81,23.58-16.42a73.15,73.15,0,0,0,1.44-13c0-16.61-8.63-33-27.78-39.88a63.89,63.89,0,0,0-24.77-4c-8.46.38-16.51,2.66-24.33,5.81-11.83,4.76-22.27,11.75-32,19.86a201.54,201.54,0,0,0-22.8,21.89c-3.18,3.61-1.66,8.94,2.92,10a7.9,7.9,0,0,0,4-.26,72.9,72.9,0,0,1,20.53-3.77c6.88-.13,13.54.9,19.72,4.07a33.36,33.36,0,0,1,5.15,3.46,6.3,6.3,0,0,0,5.82,1.27c.72-.19,1.44-.42,2.26-.67Zm3.83,29.59a5.8,5.8,0,1,0,5.72-5.85A5.78,5.78,0,0,0,117.14,161.59Z"/><path class="cls-2" d="M102.38,114.37a6.3,6.3,0,0,1-5.82-1.27,33.36,33.36,0,0,0-5.15-3.46c-6.18-3.17-12.84-4.2-19.72-4.07a72.9,72.9,0,0,0-20.53,3.77,7.9,7.9,0,0,1-4,.26c-4.58-1.09-6.1-6.42-2.92-10a201.54,201.54,0,0,1,22.8-21.89c9.76-8.11,20.2-15.1,32-19.86,7.82-3.15,15.87-5.43,24.33-5.81a63.89,63.89,0,0,1,24.77,4c19.15,6.91,27.74,23.27,27.78,39.88a73.15,73.15,0,0,1-1.44,13c-2,11.61-12,18.56-23.58,16.42a2.19,2.19,0,0,0-1.52.35q-9.93,7.62-19.78,15.35a2,2,0,0,0-.66,1.38c-.07,1.79,0,3.59,0,5.39a6,6,0,1,1-12.07,0c0-2.75.41-5.61-.19-8.23s-2.22-5-3.4-7.5l-8.67-18.3C103.82,114,103.1,114.18,102.38,114.37ZM78.19,93.69a46.89,46.89,0,0,1,22.83,7.5,2.06,2.06,0,0,0,2.08.24c4.4-1.65,8.83-3.25,13.25-4.85,5.19-1.88,10.46-2.93,16-1.49a14.23,14.23,0,0,1,8.57,6.29c1.74,2.68,3.6,5.29,5.58,7.79a11.41,11.41,0,0,0,7.63,4.32,7,7,0,0,0,8.11-5.33A41.89,41.89,0,0,0,163.86,95a31.28,31.28,0,0,0-5.19-16.81c-4.12-6-10-9.36-16.72-11.57-12-3.94-23.72-3.08-35.4,1.26A103.63,103.63,0,0,0,76.66,85.5c-3.13,2.59-6.23,5.23-9.34,7.85l.11.29C71,93.64,74.62,93.44,78.19,93.69Zm60.24,25.1c-2.73-3.82-5.36-7.56-8.08-11.24a2.52,2.52,0,0,0-1.74-.84,14.94,14.94,0,0,0-4.39.23c-2.71.7-5.35,1.7-8.18,2.63L125.25,129Z"/><path class="cls-2" d="M122.86,155.74a5.8,5.8,0,1,0,5.87,5.69A5.79,5.79,0,0,0,122.86,155.74Z"/><path class="cls-1" d="M67.32,93.35c3.11-2.62,6.21-5.26,9.34-7.85a103.63,103.63,0,0,1,29.89-17.59c11.68-4.34,23.44-5.2,35.4-1.26,6.73,2.21,12.6,5.6,16.72,11.57A31.28,31.28,0,0,1,163.86,95a41.89,41.89,0,0,1-1.67,13.13,7,7,0,0,1-8.11,5.33,11.41,11.41,0,0,1-7.63-4.32c-2-2.5-3.84-5.11-5.58-7.79a14.23,14.23,0,0,0-8.57-6.29c-5.49-1.44-10.76-.39-16,1.49-4.42,1.6-8.85,3.2-13.25,4.85a2.06,2.06,0,0,1-2.08-.24,46.89,46.89,0,0,0-22.83-7.5c-3.57-.25-7.17,0-10.76,0Zm83-15.51A28,28,0,0,0,136.44,71a6,6,0,0,0-6.93,4.64,6.15,6.15,0,0,0,4.2,7.13,39.29,39.29,0,0,1,6.7,2.75,9.4,9.4,0,0,1,4.82,7.7,6,6,0,0,0,6.53,5.34c3.1-.2,5.53-2.91,5.5-6.62A21.11,21.11,0,0,0,150.31,77.84Z"/><path class="cls-1" d="M125.25,129l13.18-10.23c-2.73-3.82-5.36-7.56-8.08-11.24a2.52,2.52,0,0,0-1.74-.84,14.94,14.94,0,0,0-4.39.23c-2.71.7-5.35,1.7-8.18,2.63Z"/><path class="cls-3" d="M157.26,91.9a21.11,21.11,0,0,0-6.95-14.06A28,28,0,0,0,136.44,71a6,6,0,0,0-6.93,4.64,6.15,6.15,0,0,0,4.2,7.13,39.29,39.29,0,0,1,6.7,2.75,9.4,9.4,0,0,1,4.82,7.7,6,6,0,0,0,6.53,5.34C154.86,98.32,157.29,95.61,157.26,91.9Z"/></svg>