<svg id="Layer_1" data-name="Layer 1" xmlns="http://www.w3.org/2000/svg" viewBox="0 0 219.27 219.27"><defs><style>.cls-1{fill:#484848;}.cls-2{fill:#f2f2f2;}.cls-3{fill:#ec6e4c;}</style></defs><path class="cls-1" d="M0,109.57a109.64,109.64,0,1,1,109.51,109.7A109.7,109.7,0,0,1,0,109.57Zm101.69-5.86a3.68,3.68,0,0,1,2.1-2.42c3.86-1.53,7.65-3.21,11.43-4.94,12.87-5.87,25.38-12.42,37-20.62,7.13-5,13.83-10.6,19.18-17.59a26.34,26.34,0,0,0,4.91-9,4.8,4.8,0,0,0-3.11-5.84,4.71,4.71,0,0,0-6,2.77,25.22,25.22,0,0,1-4.8,7.81,83.06,83.06,0,0,1-16.27,14.25c-14.23,9.91-29.74,17.4-45.67,24.07-4.09,1.72-7.2,4.1-8.42,8.73-1.11,4.25,0,8.23,3.63,10.75a28.86,28.86,0,0,1,10.68,14.38,23.34,23.34,0,0,1,.43,13.25,57.81,57.81,0,0,0-.33,24.94,38.2,38.2,0,0,0,10,19.56,4.85,4.85,0,1,0,6.94-6.75,25.08,25.08,0,0,1-5.18-7.71c-3.69-8.68-4.06-17.69-2.19-26.79a39.69,39.69,0,0,0,.39-16.38c-1.35-6.47-4.66-11.94-9-16.83C105.66,107.37,103.63,105.61,101.69,103.71ZM43.75,99.07a17.39,17.39,0,0,0,.47,2.92,46.52,46.52,0,0,0,6.62,13.6,29.65,29.65,0,0,1,4,7.46c1.1,3.07,1.85,6.29,3.15,9.27a63.47,63.47,0,0,0,4.87,9c2.88,4.46,6.12,8.69,9,13.12a106.87,106.87,0,0,1,9.34,18.72,4.84,4.84,0,1,0,9-3.63c-.55-1.41-1.12-2.81-1.73-4.2A106.69,106.69,0,0,0,77.08,144.9c-3-4.06-5.65-8.32-8.35-12.56a19,19,0,0,1-2-4.44c-2-6.25-3.91-12.44-7.86-17.86-1.86-2.54-3.07-5.57-4.52-8.41-1.55-3-1-5.55,1.6-7.82a31.85,31.85,0,0,0,7.94-10.38,63.7,63.7,0,0,1,14-19.56c5.38-5,11.4-9,18.66-10.79a4.85,4.85,0,0,0-2.29-9.42,45.75,45.75,0,0,0-16.46,7.77c-10,7.15-17.24,16.64-22.57,27.62a23.91,23.91,0,0,1-5.94,7.71C45.69,89.87,43.9,93.83,43.75,99.07ZM145.11,50.25a18.17,18.17,0,0,0-3,1.4c-4.22,3-8.37,6.11-12.59,9.12-2.37,1.69-3.08,4.47-1.6,6.79a4.8,4.8,0,0,0,6.84,1.32c1.65-1,3.31-2.08,4.88-3.24,2.92-2.16,5.81-4.36,8.63-6.63a4.66,4.66,0,0,0,1.45-5.41A5.46,5.46,0,0,0,145.11,50.25Zm-25,25c0-4.22-3.7-6.41-7.23-4.77q-7,3.26-14,6.39a4.92,4.92,0,0,0-2.7,6.36A4.71,4.71,0,0,0,102.37,86c5.12-2.2,10.18-4.56,15.21-6.95A4.33,4.33,0,0,0,120.1,75.29Z"/><path class="cls-2" d="M101.69,103.71c1.94,1.9,4,3.66,5.73,5.66,4.29,4.89,7.6,10.36,9,16.83a39.69,39.69,0,0,1-.39,16.38c-1.87,9.1-1.5,18.11,2.19,26.79a25.08,25.08,0,0,0,5.18,7.71,4.85,4.85,0,1,1-6.94,6.75,38.2,38.2,0,0,1-10-19.56,57.81,57.81,0,0,1,.33-24.94,23.34,23.34,0,0,0-.43-13.25A28.86,28.86,0,0,0,95.63,111.7C92,109.18,90.89,105.2,92,101c1.22-4.63,4.33-7,8.42-8.73,15.93-6.67,31.44-14.16,45.67-24.07A83.06,83.06,0,0,0,162.36,53.9a25.22,25.22,0,0,0,4.8-7.81,4.71,4.71,0,0,1,6-2.77,4.8,4.8,0,0,1,3.11,5.84,26.34,26.34,0,0,1-4.91,9c-5.35,7-12.05,12.54-19.18,17.59-11.58,8.2-24.09,14.75-37,20.62-3.78,1.73-7.57,3.41-11.43,4.94A3.68,3.68,0,0,0,101.69,103.71Z"/><path class="cls-2" d="M43.75,99.07c.15-5.24,1.94-9.2,5.51-12.31a23.91,23.91,0,0,0,5.94-7.71c5.33-11,12.54-20.47,22.57-27.62a45.75,45.75,0,0,1,16.46-7.77,4.85,4.85,0,0,1,2.29,9.42c-7.26,1.8-13.28,5.76-18.66,10.79a63.7,63.7,0,0,0-14,19.56,31.85,31.85,0,0,1-7.94,10.38c-2.6,2.27-3.15,4.78-1.6,7.82,1.45,2.84,2.66,5.87,4.52,8.41,3.95,5.42,5.9,11.61,7.86,17.86a19,19,0,0,0,2,4.44c2.7,4.24,5.39,8.5,8.35,12.56a106.69,106.69,0,0,1,11.37,20.47c.61,1.39,1.18,2.79,1.73,4.2a4.84,4.84,0,1,1-9,3.63,106.87,106.87,0,0,0-9.34-18.72c-2.91-4.43-6.15-8.66-9-13.12a63.47,63.47,0,0,1-4.87-9c-1.3-3-2-6.2-3.15-9.27a29.65,29.65,0,0,0-4-7.46A46.52,46.52,0,0,1,44.22,102,17.39,17.39,0,0,1,43.75,99.07Z"/><path class="cls-3" d="M145.11,50.25a5.46,5.46,0,0,1,4.66,3.35A4.66,4.66,0,0,1,148.32,59c-2.82,2.27-5.71,4.47-8.63,6.63-1.57,1.16-3.23,2.2-4.88,3.24A4.8,4.8,0,0,1,128,67.56c-1.48-2.32-.77-5.1,1.6-6.79,4.22-3,8.37-6.12,12.59-9.12A18.17,18.17,0,0,1,145.11,50.25Z"/><path class="cls-2" d="M120.1,75.29A4.33,4.33,0,0,1,117.58,79c-5,2.39-10.09,4.75-15.21,6.95a4.71,4.71,0,0,1-6.22-2.69,4.92,4.92,0,0,1,2.7-6.36q7-3.15,14-6.39C116.4,68.88,120.13,71.07,120.1,75.29Z"/></svg>