<svg id="Layer_1" data-name="Layer 1" xmlns="http://www.w3.org/2000/svg" viewBox="0 0 219.27 219.27"><defs><style>.cls-1{fill:#f2f2f2;}.cls-2{fill:#484848;}.cls-3{fill:#ec6e4c;}</style></defs><path class="cls-1" d="M219.27,109.68A109.64,109.64,0,1,1,109.74,0,109.71,109.71,0,0,1,219.27,109.68ZM92.38,142c.31-.48.41-.65.53-.81,5.61-7.4,8.24-15.83,8.76-25,.19-3.26,0-6.54.91-9.74a25.19,25.19,0,0,0,.51-3.91c.14-1.2-.47-1.68-1.61-1.89a13.56,13.56,0,0,0-7.59,1,31.6,31.6,0,0,1-7.08,2,7.46,7.46,0,0,1-8-3.72A19.61,19.61,0,0,1,76,90.09c0-2.91,0-5.82.08-8.73.09-3.46-1.18-5.06-4.51-5.51a4,4,0,0,1-3.38-5.72,10.56,10.56,0,0,1,.52-1.07c1.69-3.17,3.4-6.33,5.08-9.5,1.31-2.51,1.51-5-.21-7.45a7.68,7.68,0,0,1-1.37-2.74A48.64,48.64,0,0,1,71.26,43a4.88,4.88,0,0,0-4.88-4.73,4.79,4.79,0,0,0-4.82,4.79A28.58,28.58,0,0,0,64,55.28a2.06,2.06,0,0,1-.08,2.09c-1.59,3-3.3,5.85-4.64,8.91A13.22,13.22,0,0,0,65,83.62a2,2,0,0,1,1.13,2c-.06,6.07.59,12,3.48,17.52,3.81,7.3,10.67,11.1,18.82,10L92,112.7a6.78,6.78,0,0,1,0,.68c-.08,1.6-.1,3.2-.28,4.78-1.26,11.27-6.59,19.92-16.52,25.59-7.34,4.2-14.33,8.88-20.3,14.92a32.58,32.58,0,0,0-7.4,10.79,4.85,4.85,0,0,0,2.58,6.39,4.77,4.77,0,0,0,6.29-2.56,25.62,25.62,0,0,1,5.3-7.63c5.32-5.45,11.61-9.6,18.17-13.37a2.79,2.79,0,0,1,1.25-.28c4.2-.11,8.39-.08,12.58-.3,5.86-.31,11.71-.75,17.56-1.25a7,7,0,0,0,3.19-1.16,4.7,4.7,0,0,0,1.51-5.59,4.81,4.81,0,0,0-5-3.05c-3.26.22-6.52.57-9.78.81C98.31,141.67,95.49,141.79,92.38,142ZM177,169.85a82.26,82.26,0,0,0-2.34-16.47c-1.47-5.61-3.64-10.88-7.58-15.29a48.55,48.55,0,0,1-11.32-21.21,10.89,10.89,0,0,0-15.55-7.48c-8,3.73-16.34,6.58-25.22,7.51a4.71,4.71,0,0,0-4.09,4.36,4.6,4.6,0,0,0,3.42,5,14.28,14.28,0,0,0,4.61-.05,88.82,88.82,0,0,0,24.92-7.78c1.69-.78,2.1-.57,2.57,1.28a56.71,56.71,0,0,0,12.44,23.75,28.44,28.44,0,0,1,6,11,67.6,67.6,0,0,1,2.37,17.27,4.86,4.86,0,0,0,4.06,4.66,4.75,4.75,0,0,0,5.38-3.37A18.75,18.75,0,0,0,177,169.85ZM161.62,50.34c-.06-.74-.12-2.06-.3-3.36a4.79,4.79,0,0,0-5.39-4.13,4.86,4.86,0,0,0-4.19,5.26c.68,6-.91,11.43-3.86,16.6A36.8,36.8,0,0,0,145,71c-2.44,7.19-2.81,14.61-2.23,22.12.24,3.13,2.36,5.14,5.29,4.92,2.69-.2,4.46-2.57,4.39-5.58a103,103,0,0,1,.07-10.4,29.2,29.2,0,0,1,4-13A36.38,36.38,0,0,0,161.62,50.34Zm-30.73,96.85c3.46-.86,7.44-1.79,10.9-4a4.62,4.62,0,0,0,1.23-6,4.75,4.75,0,0,0-5.61-2.3c-2.94,1-5.88,2-8.79,3a4.8,4.8,0,0,0-3,5.39A5,5,0,0,0,130.89,147.19Z"/><path class="cls-2" d="M92.38,142c3.11-.17,5.93-.29,8.74-.49,3.26-.24,6.52-.59,9.78-.81a4.81,4.81,0,0,1,5,3.05,4.7,4.7,0,0,1-1.51,5.59,7,7,0,0,1-3.19,1.16c-5.85.5-11.7.94-17.56,1.25-4.19.22-8.38.19-12.58.3a2.79,2.79,0,0,0-1.25.28c-6.56,3.77-12.85,7.92-18.17,13.37a25.62,25.62,0,0,0-5.3,7.63,4.77,4.77,0,0,1-6.29,2.56,4.85,4.85,0,0,1-2.58-6.39,32.58,32.58,0,0,1,7.4-10.79c6-6,13-10.72,20.3-14.92,9.93-5.67,15.26-14.32,16.52-25.59.18-1.58.2-3.18.28-4.78a6.78,6.78,0,0,0,0-.68l-3.54.51c-8.15,1.08-15-2.72-18.82-10-2.89-5.55-3.54-11.45-3.48-17.52a2,2,0,0,0-1.13-2,13.22,13.22,0,0,1-5.71-17.34c1.34-3.06,3.05-6,4.64-8.91A2.06,2.06,0,0,0,64,55.28a28.58,28.58,0,0,1-2.45-12.22,4.79,4.79,0,0,1,4.82-4.79A4.88,4.88,0,0,1,71.26,43a48.64,48.64,0,0,0,.93,6.37,7.68,7.68,0,0,0,1.37,2.74c1.72,2.46,1.52,4.94.21,7.45-1.68,3.17-3.39,6.33-5.08,9.5a10.56,10.56,0,0,0-.52,1.07,4,4,0,0,0,3.38,5.72c3.33.45,4.6,2.05,4.51,5.51-.08,2.91-.12,5.82-.08,8.73a19.61,19.61,0,0,0,2.88,9.76,7.46,7.46,0,0,0,8,3.72,31.6,31.6,0,0,0,7.08-2,13.56,13.56,0,0,1,7.59-1c1.14.21,1.75.69,1.61,1.89a25.19,25.19,0,0,1-.51,3.91c-.92,3.2-.72,6.48-.91,9.74-.52,9.19-3.15,17.62-8.76,25C92.79,141.31,92.69,141.48,92.38,142Z"/><path class="cls-2" d="M177,169.85a18.75,18.75,0,0,1-.33,3.19,4.75,4.75,0,0,1-5.38,3.37,4.86,4.86,0,0,1-4.06-4.66,67.6,67.6,0,0,0-2.37-17.27,28.44,28.44,0,0,0-6-11,56.71,56.71,0,0,1-12.44-23.75c-.47-1.85-.88-2.06-2.57-1.28a88.82,88.82,0,0,1-24.92,7.78,14.28,14.28,0,0,1-4.61.05,4.6,4.6,0,0,1-3.42-5,4.71,4.71,0,0,1,4.09-4.36c8.88-.93,17.18-3.78,25.22-7.51a10.89,10.89,0,0,1,15.55,7.48,48.55,48.55,0,0,0,11.32,21.21c3.94,4.41,6.11,9.68,7.58,15.29A82.26,82.26,0,0,1,177,169.85Z"/><path class="cls-2" d="M161.62,50.34A36.38,36.38,0,0,1,156.51,69a29.2,29.2,0,0,0-4,13,103,103,0,0,0-.07,10.4c.07,3-1.7,5.38-4.39,5.58-2.93.22-5.05-1.79-5.29-4.92-.58-7.51-.21-14.93,2.23-22.12a36.8,36.8,0,0,1,2.88-6.29c3-5.17,4.54-10.6,3.86-16.6a4.86,4.86,0,0,1,4.19-5.26A4.79,4.79,0,0,1,161.32,47C161.5,48.28,161.56,49.6,161.62,50.34Z"/><path class="cls-3" d="M130.89,147.19a5,5,0,0,1-5.29-3.91,4.8,4.8,0,0,1,3-5.39c2.91-1.06,5.85-2.06,8.79-3a4.75,4.75,0,0,1,5.61,2.3,4.62,4.62,0,0,1-1.23,6C138.33,145.4,134.35,146.33,130.89,147.19Z"/></svg>