<svg id="Layer_1" data-name="Layer 1" xmlns="http://www.w3.org/2000/svg" viewBox="0 0 219.28 219.33"><defs><style>.cls-1{fill:#f2f2f2;}.cls-2{fill:#484848;}.cls-3{fill:#ec6e4c;}</style></defs><path class="cls-1" d="M219.28,109.72A109.64,109.64,0,1,1,109.75,0,109.72,109.72,0,0,1,219.28,109.72Zm-43.6-23.07-.22,0c0-.95,0-1.91,0-2.87a4.09,4.09,0,0,0-.07-.6c-1.43-9.63-6.93-16.11-15.73-19.85Q147.1,58,134.39,53c-2.39-.93-3.84-2-3.84-4.82,0-2.46-2.36-4.21-4.85-4.17A4.69,4.69,0,0,0,121,48.33a19.83,19.83,0,0,0,.41,5.1c.88,3.74,3.39,6.13,6.9,7.55,9.2,3.75,18.42,7.44,27.56,11.31a19.64,19.64,0,0,1,5.49,3.54c4.35,4,5,9.11,4.12,14.65a56,56,0,0,0-.62,6.07,34.34,34.34,0,0,0,1.59,11.67c1.73,5.69,1.21,11.5-.13,17.18a51.77,51.77,0,0,0-1.77,13.72,4.85,4.85,0,0,0,9.69,0c.13-2.43.19-4.88.55-7.27.63-4.14,1.69-8.21,2.16-12.36A33.41,33.41,0,0,0,175.68,105a22.38,22.38,0,0,1-1-9.33C175,92.67,175.35,89.66,175.68,86.65ZM100,49.67c.05-3.23-1.83-5.4-4.33-5.62a4.87,4.87,0,0,0-5.28,4,13.15,13.15,0,0,0-.26,2.25A1.64,1.64,0,0,1,88.89,52C80,55.66,71.06,59.45,62.07,63,49.89,67.7,43.5,79,45.84,91.86c.72,4,1.08,8.07-.22,12-2.21,6.63-2.23,13.34-1.17,20.11.57,3.66,1.45,7.27,2.06,10.92a43.39,43.39,0,0,1,.18,4.43,4.82,4.82,0,0,0,4.81,4.56,4.65,4.65,0,0,0,4.81-4.37,54.71,54.71,0,0,0-.42-8c-.52-3.54-1.51-7-2.06-10.56a27,27,0,0,1,.62-12.7,35.73,35.73,0,0,0,1-17.74C54,82,57.42,75.28,65,72.25l4.44-1.78q11.63-4.77,23.25-9.53a10.6,10.6,0,0,0,6.61-6.8A26,26,0,0,0,100,49.67ZM82.43,123.46c.5.05.85.11,1.2.13,2.38.12,4.77.35,7.16.3a4.53,4.53,0,0,0,4.26-3,4.58,4.58,0,0,0-.78-4.93,5.2,5.2,0,0,0-4.63-1.7c-7.4.34-12-2.75-14.66-9.67a31.86,31.86,0,0,1-1.83-9.36,4.53,4.53,0,0,0-2.93-4,4.6,4.6,0,0,0-5,.71,4.66,4.66,0,0,0-1.81,4,38.46,38.46,0,0,0,4.16,16.22c5,10,8,20.43,7.79,31.65a28.64,28.64,0,0,1-2.17,11.69,29.06,29.06,0,0,0-2.35,16.37,4.85,4.85,0,1,0,9.58-1.41,18,18,0,0,1,1.32-10.31c2.4-5.2,3.16-10.68,3.31-16.31A71.1,71.1,0,0,0,82.43,123.46Zm54.1.23c0,.16-.1.39-.15.62A69.33,69.33,0,0,0,134,144.93a38.92,38.92,0,0,0,3.21,15,18.28,18.28,0,0,1,1.37,10.54,4.86,4.86,0,1,0,9.6,1.42,27.15,27.15,0,0,0-.64-11.52c-.74-2.55-1.94-5-2.65-7.55a42.06,42.06,0,0,1-1-15.92A70.61,70.61,0,0,1,151.49,112a37.42,37.42,0,0,0,4.07-15.87,4.83,4.83,0,0,0-4.66-5.3c-2.83-.07-4.84,2-5,5a27.61,27.61,0,0,1-2.15,9.77c-1.72,3.91-4.22,7.14-8.62,8.14a30.26,30.26,0,0,1-6.17.54,4.87,4.87,0,0,0-5.08,5.13,4.8,4.8,0,0,0,4.91,4.58C131.32,124,133.87,123.77,136.53,123.69ZM108.47,86.33a30.71,30.71,0,0,0,12.61-2.43,4.86,4.86,0,0,0,2.79-6.31c-1-2.63-3.8-3.75-6.64-2.62-5.08,2-10.13,2.34-15.19-.09a4.24,4.24,0,0,0-1.49-.37A4.86,4.86,0,0,0,98,83.7,23.74,23.74,0,0,0,108.47,86.33Zm1.15,73.47,0-.1c.51,0,1,0,1.55,0a4.83,4.83,0,0,0,0-9.66c-1,0-2,0-3,0a4.84,4.84,0,0,0-4.63,4.08,4.78,4.78,0,0,0,3.29,5.31A16.24,16.24,0,0,0,109.62,159.8Z"/><path class="cls-2" d="M175.68,86.65c-.33,3-.7,6-1,9a22.38,22.38,0,0,0,1,9.33A33.41,33.41,0,0,1,177,119.46c-.47,4.15-1.53,8.22-2.16,12.36-.36,2.39-.42,4.84-.55,7.27a4.85,4.85,0,0,1-9.69,0,51.77,51.77,0,0,1,1.77-13.72c1.34-5.68,1.86-11.49.13-17.18a34.34,34.34,0,0,1-1.59-11.67,56,56,0,0,1,.62-6.07c.9-5.54.23-10.68-4.12-14.65a19.64,19.64,0,0,0-5.49-3.54c-9.14-3.87-18.36-7.56-27.56-11.31-3.51-1.42-6-3.81-6.9-7.55a19.83,19.83,0,0,1-.41-5.1A4.69,4.69,0,0,1,125.7,44c2.49,0,4.85,1.71,4.85,4.17,0,2.86,1.45,3.89,3.84,4.82Q147.1,58,159.66,63.31c8.8,3.74,14.3,10.22,15.73,19.85a4.09,4.09,0,0,1,.07.6c0,1,0,1.92,0,2.87Z"/><path class="cls-2" d="M100,49.67a26,26,0,0,1-.66,4.47,10.6,10.6,0,0,1-6.61,6.8q-11.62,4.74-23.25,9.53L65,72.25c-7.58,3-11,9.76-9.57,18.25a35.73,35.73,0,0,1-1,17.74,27,27,0,0,0-.62,12.7c.55,3.54,1.54,7,2.06,10.56a54.71,54.71,0,0,1,.42,8,4.65,4.65,0,0,1-4.81,4.37,4.82,4.82,0,0,1-4.81-4.56,43.39,43.39,0,0,0-.18-4.43c-.61-3.65-1.49-7.26-2.06-10.92-1.06-6.77-1-13.48,1.17-20.11,1.3-3.92.94-8,.22-12C43.5,79,49.89,67.7,62.07,63c9-3.5,17.88-7.29,26.82-10.93a1.64,1.64,0,0,0,1.2-1.69,13.15,13.15,0,0,1,.26-2.25,4.87,4.87,0,0,1,5.28-4C98.13,44.27,100,46.44,100,49.67Z"/><path class="cls-2" d="M82.43,123.46a71.1,71.1,0,0,1,2.67,20.32c-.15,5.63-.91,11.11-3.31,16.31a18,18,0,0,0-1.32,10.31,4.85,4.85,0,1,1-9.58,1.41,29.06,29.06,0,0,1,2.35-16.37,28.64,28.64,0,0,0,2.17-11.69c.19-11.22-2.75-21.69-7.79-31.65a38.46,38.46,0,0,1-4.16-16.22,4.66,4.66,0,0,1,1.81-4,4.6,4.6,0,0,1,5-.71,4.53,4.53,0,0,1,2.93,4A31.86,31.86,0,0,0,75,104.59c2.63,6.92,7.26,10,14.66,9.67a5.2,5.2,0,0,1,4.63,1.7,4.58,4.58,0,0,1,.78,4.93,4.53,4.53,0,0,1-4.26,3c-2.39,0-4.78-.18-7.16-.3C83.28,123.57,82.93,123.51,82.43,123.46Z"/><path class="cls-2" d="M136.53,123.69c-2.66.08-5.21.26-7.75.23a4.8,4.8,0,0,1-4.91-4.58,4.87,4.87,0,0,1,5.08-5.13,30.26,30.26,0,0,0,6.17-.54c4.4-1,6.9-4.23,8.62-8.14a27.61,27.61,0,0,0,2.15-9.77c.17-3,2.18-5,5-5a4.83,4.83,0,0,1,4.66,5.3A37.42,37.42,0,0,1,151.49,112a70.61,70.61,0,0,0-7.59,24.93,42.06,42.06,0,0,0,1,15.92c.71,2.57,1.91,5,2.65,7.55a27.15,27.15,0,0,1,.64,11.52,4.86,4.86,0,1,1-9.6-1.42,18.28,18.28,0,0,0-1.37-10.54,38.92,38.92,0,0,1-3.21-15,69.33,69.33,0,0,1,2.41-20.62C136.43,124.08,136.49,123.85,136.53,123.69Z"/><path class="cls-3" d="M108.47,86.33A23.74,23.74,0,0,1,98,83.7a4.86,4.86,0,0,1,2.53-9.19,4.24,4.24,0,0,1,1.49.37c5.06,2.43,10.11,2.1,15.19.09,2.84-1.13,5.63,0,6.64,2.62a4.86,4.86,0,0,1-2.79,6.31A30.71,30.71,0,0,1,108.47,86.33Z"/><path class="cls-2" d="M109.62,159.8a16.24,16.24,0,0,1-2.81-.37,4.78,4.78,0,0,1-3.29-5.31,4.84,4.84,0,0,1,4.63-4.08c1,0,2,0,3,0a4.83,4.83,0,0,1,0,9.66c-.52,0-1,0-1.55,0Z"/></svg>