<svg xmlns="http://www.w3.org/2000/svg" viewBox="0 0 211.61 277.29"><path d="M440.58,444.9a153.06,153.06,0,0,1-33.87-3.4c-6-1.33-11.5-3.7-15.75-8.32a20.54,20.54,0,0,1-3.2-4.59c-10.58-20.53-23.48-39.37-40.26-55.37-8.38-8-17.56-14.91-28.25-19.52a61.08,61.08,0,0,1-14.62-8.32c-6.83-5.54-11.58-12.41-13.28-21.16-1.39-7.19-.29-14.16,2.16-21,3.12-8.64,8.13-16.17,13.85-23.26a168.49,168.49,0,0,1,16.18-17.19,6,6,0,1,1,8.21,8.72,150.37,150.37,0,0,0-17.39,19c-4.35,5.81-8.15,11.94-10.29,19-3.12,10.26-.85,19.06,7.46,26a49.59,49.59,0,0,0,8.22,5.32c4.29,2.29,8.86,4.05,13.09,6.44,11.73,6.63,21.75,15.41,30.82,25.29a224.1,224.1,0,0,1,34.46,50.1,10.5,10.5,0,0,0,4,4.33c3.65,2.25,7.74,3.09,11.89,3.8a143.77,143.77,0,0,0,33.91,1.89,124.7,124.7,0,0,0,33.66-6.42l.68-.22c4.33-1.24,7.27-3.76,7.71-8.51a38.17,38.17,0,0,0,.22-4.77c0-1.29-.49-1.44-1.72-1.11-3.16.85-6.31,1.72-9.5,2.45a37.24,37.24,0,0,1-5.56.8,7.77,7.77,0,0,1-3.13-.43c-11.85-4.17-23.17-9.43-33.2-17.08a109.64,109.64,0,0,1-11.34-10.11,46.7,46.7,0,0,1-13.09-26.52c-1.45-9.71-2.65-19.46-3.89-29.2-.49-3.84-.74-7.71-1.21-11.55a10.71,10.71,0,0,0-2.38-5.53A23.24,23.24,0,0,1,400,304a11.1,11.1,0,0,1,2-9.06,12.05,12.05,0,0,0,2.28-6.58,80.84,80.84,0,0,1,9.4-31.81A114.81,114.81,0,0,1,432.79,230a44.33,44.33,0,0,0,7.39-9.69,22.71,22.71,0,0,0,1.56-3.62c1.38-4.32,0-7.71-4-9.89q-23.2-12.72-46.44-25.4a14.64,14.64,0,0,0-9.17-1.57c-3.47.48-7,4.56-7.5,7.92-1.91,13.42-4.51,26.7-9.58,39.34a70,70,0,0,1-4.79,9.36,5.85,5.85,0,0,1-8.41,2,6,6,0,0,1-1.59-8.54c3.31-5.13,5.22-10.84,6.88-16.64a208.43,208.43,0,0,0,6.06-29.9,7.3,7.3,0,0,1,.74-2.13c3.12-6.59,7.85-11.37,15.16-13A25.16,25.16,0,0,1,397,170.85c14.92,8.07,29.78,16.27,44.64,24.45a36.6,36.6,0,0,1,5.36,3.37c6.79,5.51,8.92,13.62,6,22.27a42.34,42.34,0,0,1-8.46,13.94c-3.64,4.25-7.53,8.3-10.93,12.72-7.09,9.22-12.65,19.31-15.53,30.67a66.17,66.17,0,0,0-1.77,10.85A25.69,25.69,0,0,1,412.37,301a1.86,1.86,0,0,0-.14,2.19,31.27,31.27,0,0,0,2.48,3.95,21.82,21.82,0,0,1,4.8,11.69c.71,5.66,1,11.38,1.74,17q1.51,11.94,3.41,23.83c1.4,8.83,6,16,12.38,22,8,7.63,17.48,13.09,27.55,17.54,2,.88,4.1,1.58,6.08,2.53a8,8,0,0,0,5.68.52c3-.78,5.94-1.54,8.89-2.36,6.62-1.84,15.12.63,16.76,10.57A27.09,27.09,0,0,1,500.39,425c-2.45,6.25-7.4,10.05-13.66,12.23A143.68,143.68,0,0,1,440.58,444.9Z" transform="translate(-290.74 -167.62)"/><path d="M336.33,298.71c-.12,2.94-.34,5.88-.32,8.82a19.88,19.88,0,0,0,1.73,8c2,4.54,5.61,7,10.41,7.85,1.06.19,2.14.28,3.18.53a5.79,5.79,0,0,1-1.47,11.42,28,28,0,0,1-12.2-3.48c-7.44-4.14-11.23-10.74-12.73-18.87a44.26,44.26,0,0,1,0-15.1,5.91,5.91,0,0,1,5.55-5.07,5.75,5.75,0,0,1,5.79,4.11,12.9,12.9,0,0,1,.28,1.76Z" transform="translate(-290.74 -167.62)" fill="#ec6e4c"/></svg>