<svg xmlns="http://www.w3.org/2000/svg" viewBox="0 0 184.86 280.09"><path d="M353.6,446.32c-1.67-.16-3.34-.27-5-.48-2.37-.29-4.73-.66-7.09-1a5.23,5.23,0,0,0-1.31,0c-6,.73-11.56-.88-16.73-3.82a22,22,0,0,1-4.76-3.58,7.66,7.66,0,0,1,.74-11.61,15.81,15.81,0,0,1,8-3.29c11-1.57,21.21-5.77,31.51-9.64,3.36-1.26,6.72-2.56,10-4a23.15,23.15,0,0,0,9.86-7.76,12.84,12.84,0,0,0,2.23-7.2c.41-13.28-3.8-25.56-8.16-37.79a289.56,289.56,0,0,0-11.84-27.47,74.4,74.4,0,0,1-7.34-24.42,36.39,36.39,0,0,1-.1-4.31,49,49,0,0,0-5.27-23.46c-3.35-6.44-6.08-13.11-7.09-20.36-.83-6.05-.4-11.91,2.9-17.24a20.19,20.19,0,0,1,3.44-4.11,16.21,16.21,0,0,0,4.82-7.85,121.24,121.24,0,0,1,31.4-54.6c1.52-1.53,3.12-3,4.77-4.38a5.92,5.92,0,0,1,8.39.63,6,6,0,0,1-.64,8.48,107.53,107.53,0,0,0-32.27,52.8A26.75,26.75,0,0,1,356.2,243a9.93,9.93,0,0,0-3.29,7.64c-.14,5,1.31,9.71,3.27,14.24,1.58,3.66,3.53,7.17,5,10.85a54.56,54.56,0,0,1,4.32,22.08c-.18,7.81,1.81,15,4.78,22,2.69,6.36,5.79,12.53,8.53,18.87a204.25,204.25,0,0,1,12,35.29,78.49,78.49,0,0,1,2.16,21.15c-.32,7.35-3.86,13.21-9.12,18.14-4.28,4-9.49,6.4-14.88,8.5-10,3.9-20.05,7.86-30.45,10.75l-.43.14,0,.29c2.3-.24,4.62-.38,6.91-.76a6.77,6.77,0,0,1,6,1.44,1.81,1.81,0,0,0,1.07.39,404.1,404.1,0,0,0,43.61.33c9.22-.4,18.43-1,27.64-1.54a33.87,33.87,0,0,0,4.29-.42,3.66,3.66,0,0,0,2-1.08c1.7-2,1.63-4.34,1.18-6.71a25.83,25.83,0,0,0-3.81-9.12c-5.32-8.36-8.86-17.5-11.61-27a129.22,129.22,0,0,1-5.05-42.75,150.48,150.48,0,0,1,4.31-27.16c2.52-10.75,2.55-21.55-.95-32.17a35.77,35.77,0,0,0-8.27-13.73c-3.22-3.36-5.82-7.12-6.67-11.82-1-5.59.88-10.07,5.36-13.45a25.92,25.92,0,0,1,3.91-2.31c22.47-11.57,43.35-25.39,61-43.64,7.4-7.65,13.83-16,18.27-25.79.78-1.7,1.44-3.46,2.09-5.21,1.3-3.47,4.58-5.14,7.84-3.94a6,6,0,0,1,3.46,7.95,91.64,91.64,0,0,1-16.12,27.57c-10.36,12.6-22.71,23-35.93,32.45a263,263,0,0,1-36.08,21.72c-2.33,1.15-2.66,2-1.39,4.21a20.28,20.28,0,0,0,3,4c7.65,8,11.82,17.64,13.39,28.46a78.18,78.18,0,0,1-1.84,31.12,112.14,112.14,0,0,0-3,39.47,115.15,115.15,0,0,0,11.61,40.75c1.55,3.06,3.5,5.91,5,9,2.54,5,4.12,10.24,3.51,15.92a17.74,17.74,0,0,1-9.05,14c-2.27,1.34-4.79,1.15-7.23,1.33-8,.59-16,1-24,1.54a7.12,7.12,0,0,0-.92.18Z" transform="translate(-316.4 -166.23)"/><path d="M428.86,203.11a5.93,5.93,0,0,1,5.32,3.46A5.66,5.66,0,0,1,433,213a96,96,0,0,1-13.52,11.62,61.16,61.16,0,0,1-12.29,6.92c-2.47,1-4.83,1.06-6.91-.86-3-2.77-2.35-7.87,1.43-9.4,8.89-3.61,16.08-9.54,22.81-16.15A6.48,6.48,0,0,1,428.86,203.11Z" transform="translate(-316.4 -166.23)" fill="#ec6e4c"/><path d="M464.38,177.39a15.92,15.92,0,0,1-1.33,3.26,117.59,117.59,0,0,1-17,19.29,6,6,0,0,1-8.1-8.79,127.83,127.83,0,0,0,13.87-15.36c.55-.73,1.05-1.5,1.62-2.22a5.94,5.94,0,0,1,6.66-2A6.64,6.64,0,0,1,464.38,177.39Z" transform="translate(-316.4 -166.23)"/></svg>