<svg xmlns="http://www.w3.org/2000/svg" viewBox="0 0 136.83 278.09"><path d="M410.94,224.73c11.21,0,19.73,1.13,27.79,4.6,8.61,3.7,15.22,9.52,18.53,18.51,2.38,6.48,2.05,13.11.28,19.69-2.63,9.75-8.23,17.65-15.47,24.5-2.9,2.74-6,5.25-8.79,8.12-6.87,7.16-12.11,15.34-14.79,25-.2.73-.36,1.47-.58,2.19a5.93,5.93,0,0,1-7.13,4.12,5.85,5.85,0,0,1-4.45-6.91,62.71,62.71,0,0,1,8.93-20.92,88,88,0,0,1,17.13-19.12c6.68-5.7,11.88-12.51,13.86-21.32,2.22-9.88-1.19-17-10.14-21.84a40.21,40.21,0,0,0-16.2-4.34c-22.61-1.64-42.64,4.82-60.18,19.19-6.55,5.38-11.38,11.82-13.47,20.14a55.88,55.88,0,0,0-1.16,20.12c2,17.73,8.37,34,16.94,49.52,7.45,13.43,12.83,27.54,15.21,42.74a99.43,99.43,0,0,1,1.06,20.55c-.49,9.71,4.57,16,12.79,20.25,2.23,1.15,4.36,2.46,6.9,2.92a31.45,31.45,0,0,0,16.88-1.6,35.68,35.68,0,0,0,18.2-14.54c2.5-4,2.36-8.27,1.48-12.73-2.86-14.48-9-27.56-16.85-39.91-1.55-2.42-3.27-4.73-4.93-7.08a6,6,0,0,1,1.2-8.43,5.94,5.94,0,0,1,8.4,1.28c10.84,14.63,19,30.55,23.15,48.37a82.6,82.6,0,0,1,1.57,8.84c.83,6.88-1.59,12.89-5.45,18.4-4.67,6.66-11,11.4-18.07,15.23-4.2,2.28-8.81,3.28-13.47,4-6.07,1-12.18,1.12-18-1.1-8.7-3.31-16.38-8.1-21.39-16.33a30.07,30.07,0,0,1-4.46-17.62c1-18-3.41-34.83-11.27-50.86-3-6.2-6.49-12.2-9.43-18.44A137.78,137.78,0,0,1,334.06,304c-1.61-9.61-2-19.22.14-28.82A48.83,48.83,0,0,1,350.92,248c13.59-11.53,29-19.08,46.66-21.9C402.81,225.22,408.14,225,410.94,224.73Z" transform="translate(-326.71 -166.88)"/><path d="M463.54,189.88c0,5.84-1.46,10-2.86,14.07a41.87,41.87,0,0,1-6.25,12.34,13.59,13.59,0,0,1-5.46,4.56,8.92,8.92,0,0,1-9.83-1.52,46.3,46.3,0,0,1-12.06-15.62,26.49,26.49,0,0,1-2.57-11.47,24.86,24.86,0,0,1,6-16c4.16-5,9.45-8.44,16-9.32,3.52-.48,6.83.94,9.62,3.23,3.68,3,5.55,7.09,6.43,11.6C463.13,184.92,463.33,188.12,463.54,189.88Z" transform="translate(-326.71 -166.88)" fill="#ec6e4c"/><path d="M390.15,195.85c.52-7.1,2.91-12.35,8.32-16,2.2-1.48,4.38-3,7.15-3.08a10.65,10.65,0,0,1,9.37,4.85,20.7,20.7,0,0,1,3.33,10.12c.7,7.08-1.5,13.48-4.87,19.53a8.65,8.65,0,0,1-5.8,4.66,6,6,0,0,1-4.84-.81c-4.9-3.49-9-7.74-11.17-13.44A43.48,43.48,0,0,1,390.15,195.85Z" transform="translate(-326.71 -166.88)"/><path d="M362.68,206.73c.27-7.91,4.33-13,10.75-15.63,3.18-1.29,7.2.23,9.53,3.29a17.52,17.52,0,0,1,3.23,9c.62,5.84-1.06,11.21-3.76,16.29-1,1.91-2.48,3.58-4.74,3.88a6.1,6.1,0,0,1-3.9-.52c-4.81-3.13-8.69-7.15-10.43-12.82A25.92,25.92,0,0,1,362.68,206.73Z" transform="translate(-326.71 -166.88)"/><path d="M360.7,221.09c-.5,2.27-1.12,5.26-1.84,8.24a7.57,7.57,0,0,1-1,2.14c-1.76,2.76-4.4,3.37-7.21,1.68a21.75,21.75,0,0,1-7-6.29c-4.43-6.4-2.18-14.67,5-18.53,2.68-1.45,6.34-.46,8.5,2.19C359.44,213.36,360.26,216.74,360.7,221.09Z" transform="translate(-326.71 -166.88)"/><path d="M343.13,239.27a72.35,72.35,0,0,1-1.6,7.18,3.94,3.94,0,0,1-4.14,3,2.89,2.89,0,0,1-1.05-.21,17.53,17.53,0,0,1-7.7-5.87c-3.52-4.95-2.11-11.66,3.32-15.25a5.67,5.67,0,0,1,7,1,13.59,13.59,0,0,1,3.93,10.07Z" transform="translate(-326.71 -166.88)"/></svg>