<svg xmlns="http://www.w3.org/2000/svg" viewBox="0 0 277.98 278.41"><path d="M257.19,318.81c0-6.89.2-13.87,2.51-20.37,4.06-11.41,3.45-22.84,1.68-34.5-3.32-21.85,5-41,24.68-52.17,4.72-2.68,9.91-4.56,15-6.64,17-7,34.11-14,51.15-21a20.65,20.65,0,0,0,4.18-2.5,4.08,4.08,0,0,0,1.47-3.47,39.08,39.08,0,0,1,.88-7,5.79,5.79,0,0,1,6.23-4.19c2.84.27,5.42,2.56,5.36,5.38a45.74,45.74,0,0,1-1.15,10.53c-1.56,5.87-5.81,9.61-11.32,11.88q-18.69,7.72-37.42,15.34c-7.87,3.22-15.79,6.29-23.6,9.63-10,4.28-17.71,11.06-21.71,21.44-2.73,7.07-2.94,14.41-1.72,21.83,1.69,10.23,2.33,20.48.11,30.72-.66,3.07-1.84,6-2.59,9.08a68.75,68.75,0,0,0-1.57,20.23,120.09,120.09,0,0,0,4.39,25.79c1.7,6.18,1.73,12.56,1.78,18.92a11.36,11.36,0,0,1-.33,3.3A5.94,5.94,0,0,1,263.64,370a31.6,31.6,0,0,1-.14-3.23A73.92,73.92,0,0,0,262.18,352c-1.2-5.45-2.66-10.86-3.54-16.36s-1.2-11.18-1.76-16.78Z" transform="translate(-256.88 -166.95)"/><path d="M516.57,365.22c.19-5.55.33-11.13,1.83-16.51A121.65,121.65,0,0,0,522.3,329c1-9.15,1-18.27-1.35-27.26-1-3.67-2.17-7.27-2.88-11a64.18,64.18,0,0,1-.54-18.15c.4-4.17,1.11-8.31,1.57-12.48,2.25-20.21-8.29-33.89-24.19-40.55-10.12-4.24-20.32-8.27-30.48-12.42Q449.58,201.1,434.75,195c-5.72-2.34-10-6.12-11.9-12.15a23.84,23.84,0,0,1-.64-4.24c-.17-1.46-.22-2.94-.42-4.4-.49-3.68,1.7-6.76,5.18-7.22s6.37,2.06,6.73,5.77c.2,2,.23,4.06.58,6a5.13,5.13,0,0,0,1.44,2.76,13.6,13.6,0,0,0,3.82,2.4c19.15,7.89,38.28,15.8,57.5,23.52,6.94,2.78,13.37,6.28,18.85,11.37C527,229.23,532,242.16,531.28,257.24c-.21,4.49-1.07,8.95-1.54,13.44-.84,7.86-1.23,15.79,1.36,23.39,3.74,11,4.3,22.19,3.35,33.59A145,145,0,0,1,530,352c-.93,3.6-1,7.43-1.31,11.16-.2,2.23,0,4.48-.24,6.71a5.85,5.85,0,0,1-5.4,5.21,6,6,0,0,1-6.24-4.36,8.09,8.09,0,0,1-.22-1.9C516.55,367.62,516.57,366.42,516.57,365.22Z" transform="translate(-256.88 -166.95)"/><path d="M467.51,323l-1.39.93a43.71,43.71,0,0,1-21.93,7.55,89.47,89.47,0,0,1-9.69,0,5.89,5.89,0,0,1-5.83-6.39c.26-3.43,3.23-5.74,6.85-5.5A40.25,40.25,0,0,0,454,317c7.95-3.31,13.18-9.41,16.85-16.94a62.93,62.93,0,0,0,6-25.08c.16-3.73,2.62-6.36,6.09-6.32a6,6,0,0,1,5.9,6.48c-.19,7.14-1.71,14.06-3.41,21-4.18,17-3.38,33.8,3.15,50.19.34.85.74,1.68,1.12,2.51A6,6,0,0,1,479,354.07c-1.07-2.13-1.9-4.39-2.83-6.59-.19-.48-.35-1-.65-1.77-.54,2.76-1,5.21-1.48,7.65-2.76,14.55-5.54,29.09-8.25,43.65-.61,3.3.18,6.54,1.22,9.65,1.11,3.32,2.57,6.52,3.74,9.83a44.81,44.81,0,0,1,2.78,19.29,28.19,28.19,0,0,1-1,5.39,5.89,5.89,0,0,1-7.43,3.92,6,6,0,0,1-4-7.3c1.43-5.65.42-11.12-1.36-16.48-1.18-3.55-2.9-6.93-3.94-10.52a78,78,0,0,1-2.05-10.42c-.53-3.63.58-7.14,1.24-10.66q4.59-24.34,9.24-48.69c1.07-5.69,2.16-11.37,3.23-17.06C467.44,323.69,467.45,323.42,467.51,323Z" transform="translate(-256.88 -166.95)"/><path d="M316.55,346c-.34.89-.56,1.51-.82,2.12-.82,1.95-1.57,3.94-2.5,5.83a6,6,0,1,1-10.75-5.31,73.16,73.16,0,0,0,6.29-23.85,86.93,86.93,0,0,0-3-32.24,71.74,71.74,0,0,1-2.52-17.74,6,6,0,1,1,12-.23c.09,1.92.21,3.83.45,5.73,1.17,9.13,3.61,17.84,8.92,25.5a30.85,30.85,0,0,0,23.9,13.67,77.53,77.53,0,0,0,8.49.08,6.13,6.13,0,0,1,6.39,5.54,6,6,0,0,1-5.59,6.41c-10.05.79-19.68-.63-28.6-5.58-1.56-.87-3-1.88-4.76-3,.4,2.22.76,4.24,1.14,6.26,1.29,6.91,2.61,13.81,3.9,20.71a6,6,0,0,1-4.49,6.93,5.91,5.91,0,0,1-7.18-4.37C317.34,350.44,317,348.35,316.55,346Z" transform="translate(-256.88 -166.95)"/><path d="M431.29,232.35a5.92,5.92,0,0,1-4.58,5.84c-9.31,2.57-18.63,5.07-27.92,7.68a9.42,9.42,0,0,1-5.34,0c-9.49-2.63-19-5.13-28.53-7.7a5.95,5.95,0,1,1,2.79-11.56c6.22,1.59,12.41,3.29,18.61,5,3,.79,5.93,1.61,8.91,2.36a3.54,3.54,0,0,0,1.74,0c8.78-2.37,17.54-4.78,26.32-7.17C427.48,225.62,431.26,228.28,431.29,232.35Z" transform="translate(-256.88 -166.95)"/><path d="M318.39,433.42a53.76,53.76,0,0,1,4.84-21.65c1.89-4.27,3.42-8.68,3.2-13.38a87,87,0,0,0-1.47-9.81c-.23-1.41-.54-2.82-.79-4.23a6,6,0,0,1,4.65-7.12,5.86,5.86,0,0,1,7.08,4.8c.92,4.78,1.93,9.56,2.47,14.38a33.27,33.27,0,0,1-2,14.37c-1,2.91-2.27,5.7-3.34,8.58-1.88,5.1-3.08,10.32-2.5,15.81a22.56,22.56,0,0,0,.52,2.7,6,6,0,0,1-11.43,3.47,15.78,15.78,0,0,1-.75-3C318.64,436.39,318.5,434.44,318.39,433.42Z" transform="translate(-256.88 -166.95)"/><path d="M402,185.45c0,2,0,3.91,0,5.86a6,6,0,1,1-12,0c0-4,0-7.9,0-11.85a6,6,0,1,1,12,0C402.06,181.46,402,183.45,402,185.45Z" transform="translate(-256.88 -166.95)"/><path d="M396.54,397.4c1,0,2,0,3,0a6,6,0,0,1,0,12c-2,.05-4.07.05-6.1,0a6,6,0,0,1,.1-12C394.54,397.38,395.54,397.4,396.54,397.4Z" transform="translate(-256.88 -166.95)"/><path d="M327,372.78a5.83,5.83,0,1,1,5.84-5.82A6,6,0,0,1,327,372.78Z" transform="translate(-256.88 -166.95)" fill="#ec6e4c"/></svg>