<svg xmlns="http://www.w3.org/2000/svg" viewBox="0 0 278.84 236.73"><path d="M481,309.44h30.21c1,0,2,0,3-.14,5.75-.62,8.43-4.84,9.46-10a13.54,13.54,0,0,0-.38-6.39c-1.11-4-4.16-5.77-7.94-6.54a18.14,18.14,0,0,0-3.45-.3q-22.67,0-45.33,0a6,6,0,1,1,.08-12q12.11,0,24.22,0l21.22,0c5.63,0,10.92,1.31,15.39,4.78,6.59,5.11,9,12.17,8.28,20.26A24.87,24.87,0,0,1,530,313.51a21.6,21.6,0,0,1-16,7.86c-3.27.18-6.56.06-9.83.06H450.5c-2,0-2.64.56-2.67,2.62a11.91,11.91,0,0,0,.31,3.21c2.46,8.93,0,16.73-5.58,23.72a69.93,69.93,0,0,1-5.56,5.6c-.37.37-.71.59-.48,1.28,2.32,6.95,1.31,13.62-1.81,20.09a46.06,46.06,0,0,1-11.54,14.4,2.84,2.84,0,0,0-1,2.13,30.4,30.4,0,0,1-8.76,18.84c-5.47,5.72-12.33,9-19.89,10.94-12.84,3.23-25.63,2.73-38.39-.59-18.21-4.72-34.29-13.55-48.88-25.27a3.52,3.52,0,0,0-2-.72c-8.16,0-16.31,0-24.46,0-4.95,0-8.87-2.42-12.13-5.94-3.52-3.8-5.57-8.44-7.07-13.32a77.63,77.63,0,0,1-3.33-21.85c-.22-19.14-.2-38.28-.25-57.43a15.92,15.92,0,0,1,.35-4.15,11.68,11.68,0,0,1,8.48-8.62c12.34-3.61,24.33-8,35.3-14.86a47.8,47.8,0,0,0,11.79-9.73,26.15,26.15,0,0,0,2.94-4.35Q331.5,228,347.1,198.63a4.16,4.16,0,0,1,1.13-1.5,39.74,39.74,0,0,1,17.89-7.24,20,20,0,0,1,22,15.41,43.78,43.78,0,0,1-.9,23c-1.7,5.72-4,11.26-6.09,16.86-1.93,5.16-4,10.27-5.88,15.44a22.69,22.69,0,0,0-1.14,4.75c-.44,3.23.85,5.48,3.78,6.92a19.31,19.31,0,0,0,8,1.88c5.51.16,11,.19,16.54.19,9.87,0,19.74-.07,29.61-.08,4.63,0,7.64,3.92,6.2,8a5.8,5.8,0,0,1-5.34,4c-3.4.09-6.8.07-10.19.08-11.27,0-22.54.06-33.81,0a42.81,42.81,0,0,1-12-1.62c-11.63-3.42-17.13-12.77-14.05-24.51,1.19-4.53,3.13-8.87,4.78-13.27,2.43-6.46,5-12.86,7.32-19.36a35.9,35.9,0,0,0,1.86-17.47,12.28,12.28,0,0,0-1.15-3.87c-2-3.84-4.79-5.32-10-4.08a49.47,49.47,0,0,0-8.19,3.28,3.37,3.37,0,0,0-1.23,1.52c-9.57,18-19.2,35.91-28.62,54a49.68,49.68,0,0,1-15.2,17.43c-9,6.55-19,11.13-29.33,15-3.62,1.36-7.29,2.61-10.94,3.86-.79.27-1.66.29-2.44.57-.33.12-.54.61-.78,1,0,.08,0,.23,0,.35,0,17.35,0,34.69.05,52a85.56,85.56,0,0,0,2.83,23.12,24,24,0,0,0,4.38,9.1,6,6,0,0,0,5.07,2.39c9.07-.1,18.15,0,27.22-.05a3,3,0,0,1,2.15.75c12,10.32,25.32,18.51,40.41,23.57,8.45,2.83,17.08,4.74,26.07,4.43,6.5-.23,12.91-1,18.95-3.6s11.05-6.66,13.22-13.22a39.16,39.16,0,0,0,1.09-6.81c.6-4.28,2.44-7.65,6.68-9.32a1.68,1.68,0,0,0,.6-.37c3.47-3.55,6.53-7.36,7.7-12.34a12.47,12.47,0,0,0-.67-8.18c-2.61-5.92-.47-11.39,5.39-14.13a2.49,2.49,0,0,0,.63-.32c3.92-3.65,6.77-7.83,6.29-13.49-.16-1.81-.8-3.58-1-5.4a16.63,16.63,0,0,1,1.29-9.83c2.58-5.14,6.72-7.91,12.51-7.94C460.17,309.41,470.57,309.44,481,309.44Z" transform="translate(-256.98 -189.71)"/><path d="M449.12,286a5.82,5.82,0,0,1,.31-11.63,5.72,5.72,0,0,1,5.63,6A5.78,5.78,0,0,1,449.12,286Z" transform="translate(-256.98 -189.71)" fill="#ec6e4c"/></svg>