<svg xmlns="http://www.w3.org/2000/svg" viewBox="0 0 278.88 193.78"><path d="M428.66,304.33c-21.23,10.79-42.48,12.38-64,.45,0,.52,0,.93,0,1.34.14,12.17-2.58,23.62-8.93,34.07a86.24,86.24,0,0,1-6.09,8.43,5.87,5.87,0,0,1-8.53.83,5.94,5.94,0,0,1-.55-8.58,49,49,0,0,0,10.05-18.61,55.23,55.23,0,0,0,.89-26.55,2.72,2.72,0,0,0-.68-1.34c-10.31-9.8-17.92-21.5-24.08-34.2a182.71,182.71,0,0,1-14.39-41.89,6,6,0,0,1,4.75-7.35,6.06,6.06,0,0,1,7,5,173.89,173.89,0,0,0,12.57,37.23c4.77,10.17,10.53,19.73,18.11,28.09S371,296.07,381.9,299.11a43.22,43.22,0,0,0,11.76,2c13-.13,25.14-3.4,35.56-11.76,9.06-7.26,16-16.22,21.76-26.21a167.39,167.39,0,0,0,18-47.51c.7-3.18,3-5.22,5.94-5.23a5.91,5.91,0,0,1,5.9,4.81,5.51,5.51,0,0,1,0,2.25C476.35,237.73,469.26,257,458,274.6a104.14,104.14,0,0,1-15.14,18.68,2.47,2.47,0,0,0-.77,1.15c-2.47,12.61-2.21,25,3.71,36.71,4.66,9.24,12.38,15.07,21.85,18.75a81.68,81.68,0,0,0,24.48,5.29c6.68.42,13.16,1.36,19.25,4.35,10.68,5.25,17.51,13.83,21.27,24.9a88.64,88.64,0,0,1,2.87,12.33,5.89,5.89,0,0,1-5.17,6.85,6.06,6.06,0,0,1-6.72-5.39,44.58,44.58,0,0,0-3.86-13.78c-5.19-10.6-13.66-16.31-25.51-17-12.36-.76-24.43-2.95-35.67-8.39-16-7.74-25.41-20.53-28.74-37.89a73.56,73.56,0,0,1-1.15-16.23A5.09,5.09,0,0,0,428.66,304.33Z" transform="translate(-256.74 -210.36)"/><path d="M315.71,354.25a6.05,6.05,0,0,1,6.21,5.61,6,6,0,0,1-5.54,6.36c-8.06.8-16.14,1.51-24.2,2.34-4.25.44-7.78,2.57-11,5.21-6,5-9.35,11.62-11.27,19.05-.51,2-.88,4-1.22,6a6,6,0,1,1-11.87-1.92,57.28,57.28,0,0,1,7.59-21.78c5.39-8.72,12.79-15,22.77-17.75,3-.82,6.15-.82,9.24-1.15,6.2-.65,12.4-1.27,18.59-1.9Z" transform="translate(-256.74 -210.36)"/><path d="M463.84,371.21c2.48,0,5-.11,7.42,0a5.91,5.91,0,0,1,5.59,6.28,6.14,6.14,0,0,1-6.33,5.72c-4.75,0-9.51-.06-14.24.28A111.79,111.79,0,0,0,417.8,393a6.56,6.56,0,0,1-4.17.67,6,6,0,0,1-4.85-5.27,5.79,5.79,0,0,1,3.53-6.1c5.49-2.15,11-4.39,16.59-6.1A123.31,123.31,0,0,1,463.84,371.21Z" transform="translate(-256.74 -210.36)"/><path d="M331,371c17.75.3,34.89,3.58,51.12,11,3.25,1.49,4.64,4.7,3.42,7.79-1.29,3.28-4.8,4.55-8.25,3.22-5.24-2-10.45-4.19-15.84-5.72a115.63,115.63,0,0,0-37.2-4.31,6.06,6.06,0,0,1-6.37-5.55,5.89,5.89,0,0,1,5.58-6.39C326,370.86,328.49,371,331,371Z" transform="translate(-256.74 -210.36)"/><path d="M331.35,359.82a5.57,5.57,0,0,1,.36-11.14,5.43,5.43,0,0,1,5.36,5.74A5.5,5.5,0,0,1,331.35,359.82Z" transform="translate(-256.74 -210.36)" fill="#ec6e4c"/></svg>