<svg xmlns="http://www.w3.org/2000/svg" viewBox="0 0 250.61 278.64"><path d="M340.92,366.22a62.24,62.24,0,0,1-19.24,8.06A174.47,174.47,0,0,0,301.55,380a150.63,150.63,0,0,0-21,9.27c-2.79,1.5-5.63,1.11-7.57-1a5.88,5.88,0,0,1,1.7-9.42c5.83-2.87,11.7-5.7,17.7-8.18,8.63-3.58,17.67-5.93,26.74-8.18,12.68-3.15,23.09-9.78,29.91-21.3.49-.84.33-1.26-.25-2-3.59-4.69-7.27-9.34-10.55-14.25a147.88,147.88,0,0,1-21.41-48.73,105.49,105.49,0,0,1-3.22-26.81,84.24,84.24,0,0,1,4.24-24.1,6,6,0,0,1,11.39,3.58,75,75,0,0,0-3.45,18.19,77.31,77.31,0,0,0,.41,12.91c3.19,26.75,14.39,50.05,31.2,70.8,3.46,4.27,8.07,7.37,12.72,10.29A53.61,53.61,0,0,0,390,349c7.8,1.29,15.27,0,22.49-3A64.85,64.85,0,0,0,433,332.5a58.65,58.65,0,0,0,6-7.29,141.39,141.39,0,0,0,24-49.46,102,102,0,0,0,3.46-23.42c.16-9.57-1.91-18.81-5.1-27.77-8.07-22.68-24.15-36.75-47.19-42.94-21.94-5.9-42.16-2-60.51,11.41a59.69,59.69,0,0,0-9.9,9.56,5.94,5.94,0,0,1-10-1.22,5.77,5.77,0,0,1,.91-6.59,74.62,74.62,0,0,1,24.82-19.43c11.65-5.66,24-8.89,36.92-8.31,28.41,1.26,51.92,12.12,68,36.51,6.7,10.18,10.38,21.56,12.7,33.47,2.71,13.92,1,27.54-2.33,41-5.14,20.72-14.67,39.33-27.59,56.26-1.09,1.43-2.18,2.86-3.34,4.23a1.26,1.26,0,0,0-.17,1.67,42.27,42.27,0,0,0,15.11,15.88c6.08,3.87,12.83,5.9,19.8,7.54a161.26,161.26,0,0,1,39.94,15.19,5.78,5.78,0,0,1,3.34,5.87,5.66,5.66,0,0,1-3.92,5.12,6.07,6.07,0,0,1-5.29-.55,145.25,145.25,0,0,0-19.31-8.67,175.66,175.66,0,0,0-21.82-6.34,61.3,61.3,0,0,1-18.21-7.45c-.3-.19-.61-.38-.92-.55-.06,0-.15,0-.33,0l-.68,1c-10.26,16.1-22.21,30.77-36.61,43.36-3.51,3.07-7.29,5.84-10.94,8.75a4.3,4.3,0,0,0-1.85,3.53c0,5.52,0,11,0,16.55a6,6,0,0,1-4.35,5.92,5.77,5.77,0,0,1-6.71-2.66,7.66,7.66,0,0,1-.89-3.41c-.08-6.07,0-12.15-.07-18.22a2.17,2.17,0,0,0-.71-1.58c-15.57-11.33-28.47-25.27-39.75-40.77C346.59,374.68,343.83,370.46,340.92,366.22Zm55.57,43.67,1.15-.79a163.24,163.24,0,0,0,30.51-29.83,199.91,199.91,0,0,0,14-19.74c.37-.61.57-1-.08-1.63a21,21,0,0,1-2.44-2.63c-1.95-2.51-3.84-5.07-5.82-7.69-24.69,18.06-49.7,18.51-74.63.68l-8.51,10.68C362.92,378.45,377.6,396,396.49,409.89Z" transform="translate(-271.31 -166.97)"/><path d="M335.44,212.24a5.83,5.83,0,1,1-5.86-5.8A6,6,0,0,1,335.44,212.24Z" transform="translate(-271.31 -166.97)" fill="#ec6e4c"/><path d="M396.49,409.89c-18.89-13.85-33.57-31.44-45.84-50.95l8.51-10.68c24.93,17.83,49.94,17.38,74.63-.68,2,2.62,3.87,5.18,5.82,7.69a21,21,0,0,0,2.44,2.63c.65.6.45,1,.08,1.63a199.91,199.91,0,0,1-14,19.74,163.24,163.24,0,0,1-30.51,29.83Z" transform="translate(-271.31 -166.97)" fill="#fff"/></svg>