<svg id="Layer_1" data-name="Layer 1" xmlns="http://www.w3.org/2000/svg" viewBox="0 0 133.38 133.38"><defs><style>.cls-1{fill:#f2f2f2;}</style></defs><path class="cls-1" d="M133.38,66.67A66.69,66.69,0,1,1,66.7,0,66.67,66.67,0,0,1,133.38,66.67Zm-12.07,0a54.62,54.62,0,1,0-54.66,54.59A54.77,54.77,0,0,0,121.31,66.72Z"/><path class="cls-1" d="M57.07,76c.39-.48.66-.89,1-1.23Q73.6,59.19,89.13,43.61a6.09,6.09,0,0,1,6.18-1.93,6,6,0,0,1,3.07,9.76c-.23.27-.49.52-.74.78q-16,16.08-32.09,32.16A12.45,12.45,0,0,1,59.23,88a10.84,10.84,0,0,1-10.33-3.1c-4.78-4.66-9.46-9.41-14.15-14.16a6,6,0,1,1,8.62-8.46q6.29,6.27,12.54,12.56C56.21,75.18,56.53,75.48,57.07,76Z"/></svg>