<svg xmlns="http://www.w3.org/2000/svg" viewBox="0 0 219.43 219.43"><path d="M396.54,416.09a109.71,109.71,0,1,1,109.6-109.68A109.71,109.71,0,0,1,396.54,416.09Zm0-92.78L418.22,345q12.28,12.3,24.59,24.58a12,12,0,1,0,16.69-17.21Q437,329.85,414.56,307.38c-.32-.32-.62-.67-.87-.94.34-.4.57-.73.85-1q22.51-22.55,45-45.07a12,12,0,0,0-17-16.89Q424,262,405.5,280.54c-2.95,2.95-5.87,5.93-9,9.06a12.59,12.59,0,0,0-.84-1.08l-40-40c-1.84-1.83-3.64-3.71-5.52-5.49a12,12,0,0,0-16.45,17.44q22.46,22.49,44.94,44.94c.32.32.63.66,1,1.07l-1.06,1q-22.47,22.47-44.93,44.95a12,12,0,0,0,17,16.9q13.59-13.53,27.13-27.12C384,335.93,390.24,329.66,396.58,323.31Z" transform="translate(-286.71 -196.67)" fill="#484848"/></svg>