<svg id="Layer_1" data-name="Layer 1" xmlns="http://www.w3.org/2000/svg" viewBox="0 0 132.48 132.75"><defs><style>.cls-1{fill:#ec6e4c;}</style></defs><path class="cls-1" d="M79.31,13.5c4.15-2.21,8.61-2.72,13.22-2.65a29.53,29.53,0,0,1,28.13,22.27,3.66,3.66,0,0,0,1.09,1.73c9,8,12.63,18,9.76,29.76S120.83,83.67,109,86.51a25.18,25.18,0,0,1-5.81.64q-36.67.06-73.35,0c-14.92,0-27.26-10.24-29.47-25C-1.42,50,3.1,40.28,13.11,33.13a2.43,2.43,0,0,0,1.16-1.77A35.82,35.82,0,0,1,30.57,6a37,37,0,0,1,48.05,6.78C78.82,13,79.05,13.21,79.31,13.5ZM66.25,75.11h35.83a26.51,26.51,0,0,0,3.34-.21c9.71-1.21,16.69-11.14,14.58-20.73a16.8,16.8,0,0,0-7-10.62,9.1,9.1,0,0,1-3.9-6.22,16.52,16.52,0,0,0-4.22-8.71c-4.38-4.8-10-6.24-16.21-5.52a17.07,17.07,0,0,0-3.59,1.16,35.87,35.87,0,0,1-5.25,1.89,8.22,8.22,0,0,1-8.74-3.39c-7.18-9.91-19.33-13.38-30.51-8.44-8.64,3.82-13.41,10.62-14.42,20-.3,2.74-.88,5.4-3.36,7.11-.72.49-1.56.81-2.31,1.26a17.42,17.42,0,0,0-2.8,27.73c3.74,3.43,8.21,4.69,13.2,4.67C42.69,75.07,54.47,75.11,66.25,75.11Z"/><path class="cls-1" d="M24.37,115c-5.1,0-8.13-4.79-5.95-8.74,1.77-3.2,3.77-6.3,5.85-9.32a6,6,0,0,1,10.11,6.41c-1.81,3.14-3.78,6.2-5.78,9.22A5.32,5.32,0,0,1,24.37,115Z"/><path class="cls-1" d="M62.56,115c-5.19,0-8.2-4.82-6-8.76,1.78-3.21,3.77-6.3,5.85-9.32a6,6,0,0,1,10.14,6.34c-1.84,3.22-3.85,6.35-5.92,9.43A5.15,5.15,0,0,1,62.56,115Z"/><path class="cls-1" d="M110.11,100.68a20,20,0,0,1-1.23,3.18c-1.64,2.78-3.39,5.5-5.14,8.22a6,6,0,1,1-10.25-6.38c1.75-2.86,3.52-5.71,5.36-8.51a5.93,5.93,0,0,1,6.84-2.39A6.57,6.57,0,0,1,110.11,100.68Z"/><path class="cls-1" d="M49.44,118.38a17.51,17.51,0,0,1-1.14,3.09c-1.68,2.85-3.46,5.64-5.27,8.42a6,6,0,1,1-10.21-6.43c1.75-2.86,3.52-5.7,5.36-8.51A6,6,0,0,1,45,112.53,6.55,6.55,0,0,1,49.44,118.38Z"/><path class="cls-1" d="M87.56,118.44a18.65,18.65,0,0,1-1.17,3.08c-1.67,2.81-3.43,5.57-5.2,8.32A6,6,0,1,1,71,123.41c1.73-2.82,3.48-5.63,5.29-8.4a5.93,5.93,0,0,1,6.8-2.49A6.51,6.51,0,0,1,87.56,118.44Z"/></svg>