<svg id="Layer_1" data-name="Layer 1" xmlns="http://www.w3.org/2000/svg" viewBox="0 0 219.27 219.27"><defs><style>.cls-1{fill:#f2f2f2;}.cls-2{fill:#484848;}</style></defs><path class="cls-1" d="M109.59,219.27A109.64,109.64,0,1,1,219.27,109.73,109.69,109.69,0,0,1,109.59,219.27ZM122.86,56.73l-.7-.75a37,37,0,0,0-48-6.78A35.81,35.81,0,0,0,57.81,74.6a2.42,2.42,0,0,1-1.16,1.77c-10,7.15-14.53,16.91-12.71,29.05,2.21,14.75,14.54,25,29.47,25q36.66,0,73.34,0a25.31,25.31,0,0,0,5.82-.63c11.8-2.84,19.61-10.13,22.49-21.9s-.75-21.72-9.76-29.76a3.66,3.66,0,0,1-1.1-1.74,29.55,29.55,0,0,0-28.12-22.27C131.46,54,127,54.53,122.86,56.73ZM67.92,158.22a5.32,5.32,0,0,0,4.22-2.43c2-3,4-6.09,5.78-9.23a6,6,0,0,0-10.11-6.41c-2.07,3-4.07,6.12-5.84,9.33C59.79,153.43,62.82,158.23,67.92,158.22Zm38.18,0a5.19,5.19,0,0,0,4.07-2.32c2.06-3.08,4.08-6.2,5.91-9.42A6,6,0,0,0,106,140.13c-2.08,3-4.07,6.12-5.85,9.32C97.91,153.4,100.91,158.22,106.1,158.22Zm47.56-14.3a6.61,6.61,0,0,0-4.43-5.89,6,6,0,0,0-6.84,2.4c-1.84,2.8-3.61,5.64-5.35,8.5a6,6,0,1,0,10.25,6.38c1.75-2.71,3.49-5.44,5.14-8.22A20.83,20.83,0,0,0,153.66,143.92ZM93,161.62a6.55,6.55,0,0,0-4.44-5.85,5.94,5.94,0,0,0-6.83,2.42c-1.83,2.8-3.61,5.65-5.35,8.51a6,6,0,1,0,10.21,6.43c1.8-2.78,3.58-5.58,5.27-8.42A18.66,18.66,0,0,0,93,161.62Zm38.11.06a6.51,6.51,0,0,0-4.49-5.93,6,6,0,0,0-6.8,2.49q-2.72,4.17-5.3,8.41a6,6,0,1,0,10.23,6.43c1.77-2.75,3.53-5.51,5.2-8.33A18.51,18.51,0,0,0,131.1,161.68Z"/><path class="cls-2" d="M122.86,56.73c4.15-2.2,8.6-2.71,13.22-2.65A29.55,29.55,0,0,1,164.2,76.35a3.66,3.66,0,0,0,1.1,1.74c9,8,12.63,18,9.76,29.76s-10.69,19.06-22.49,21.9a25.31,25.31,0,0,1-5.82.63q-36.68.08-73.34,0c-14.93,0-27.26-10.24-29.47-25-1.82-12.14,2.7-21.9,12.71-29a2.42,2.42,0,0,0,1.16-1.77A35.81,35.81,0,0,1,74.12,49.2a37,37,0,0,1,48,6.78ZM109.8,118.34q17.91,0,35.83,0a26.74,26.74,0,0,0,3.34-.21c9.71-1.2,16.68-11.13,14.58-20.72a16.79,16.79,0,0,0-7-10.62,9.1,9.1,0,0,1-3.9-6.23,16.51,16.51,0,0,0-4.21-8.71c-4.39-4.79-10-6.24-16.21-5.51a16.85,16.85,0,0,0-3.59,1.15,36,36,0,0,1-5.26,1.9A8.21,8.21,0,0,1,114.65,66c-7.18-9.92-19.34-13.38-30.52-8.44-8.64,3.81-13.4,10.61-14.42,20-.29,2.74-.87,5.4-3.36,7.11-.72.49-1.55.81-2.3,1.26a17.41,17.41,0,0,0-2.8,27.73c3.74,3.43,8.21,4.69,13.2,4.67C86.23,118.31,98,118.34,109.8,118.34Z"/><path class="cls-2" d="M67.92,158.22c-5.1,0-8.13-4.79-6-8.74,1.77-3.21,3.77-6.3,5.84-9.33a6,6,0,0,1,10.11,6.41c-1.81,3.14-3.77,6.2-5.78,9.23A5.32,5.32,0,0,1,67.92,158.22Z"/><path class="cls-2" d="M106.1,158.22c-5.19,0-8.19-4.82-6-8.77,1.78-3.2,3.77-6.3,5.85-9.32a6,6,0,0,1,10.13,6.35c-1.83,3.22-3.85,6.34-5.91,9.42A5.19,5.19,0,0,1,106.1,158.22Z"/><path class="cls-2" d="M153.66,143.92a20.83,20.83,0,0,1-1.23,3.17c-1.65,2.78-3.39,5.51-5.14,8.22A6,6,0,1,1,137,148.93c1.74-2.86,3.51-5.7,5.35-8.5a6,6,0,0,1,6.84-2.4A6.61,6.61,0,0,1,153.66,143.92Z"/><path class="cls-2" d="M93,161.62a18.66,18.66,0,0,1-1.14,3.09c-1.69,2.84-3.47,5.64-5.27,8.42a6,6,0,1,1-10.21-6.43c1.74-2.86,3.52-5.71,5.35-8.51a5.94,5.94,0,0,1,6.83-2.42A6.55,6.55,0,0,1,93,161.62Z"/><path class="cls-2" d="M131.1,161.68a18.51,18.51,0,0,1-1.16,3.07c-1.67,2.82-3.43,5.58-5.2,8.33a6,6,0,1,1-10.23-6.43q2.59-4.25,5.3-8.41a6,6,0,0,1,6.8-2.49A6.51,6.51,0,0,1,131.1,161.68Z"/><path class="cls-1" d="M109.8,118.34c-11.78,0-23.57,0-35.35,0-5,0-9.46-1.24-13.2-4.67A17.41,17.41,0,0,1,64.05,86c.75-.45,1.58-.77,2.3-1.26,2.49-1.71,3.07-4.37,3.36-7.11,1-9.43,5.78-16.23,14.42-20,11.18-4.94,23.34-1.48,30.52,8.44a8.21,8.21,0,0,0,8.73,3.39,36,36,0,0,0,5.26-1.9,16.85,16.85,0,0,1,3.59-1.15c6.25-.73,11.82.72,16.21,5.51a16.51,16.51,0,0,1,4.21,8.71,9.1,9.1,0,0,0,3.9,6.23,16.79,16.79,0,0,1,7,10.62c2.1,9.59-4.87,19.52-14.58,20.72a26.74,26.74,0,0,1-3.34.21Q127.72,118.36,109.8,118.34Z"/></svg>