<svg xmlns="http://www.w3.org/2000/svg" viewBox="0 0 219.43 219.43"><path d="M485.12,301.41A109.72,109.72,0,1,1,375.53,191.68,109.74,109.74,0,0,1,485.12,301.41ZM369.78,224.86c-3.2.48-6.29.83-9.34,1.43-42.35,8.43-69.55,50.73-59.68,92.78a76.6,76.6,0,0,0,88.07,58.2c25.85-4.6,44.61-19.2,56.22-42.71,6.83-13.85,8.79-28.6,6.67-43.88a74.25,74.25,0,0,0-7.39-23.54,12,12,0,1,0-21.42,10.79,52.91,52.91,0,0,1-56.19,75.81c-28.13-4.89-47.58-31.1-43.34-59.36,3.2-21.33,15.59-35.62,35.88-43a41.84,41.84,0,0,1,10.52-2.26v1.39c0,4,0,8.07,0,12.11,0,1.67.69,2.07,2.05,1.26l42.92-25.79a4.8,4.8,0,0,0,1.06-.77,1.13,1.13,0,0,0-.12-1.92,7.72,7.72,0,0,0-.91-.57L373.55,210.2c-.62-.36-1.22-.77-1.86-1.08a1.08,1.08,0,0,0-1.68.74,6.61,6.61,0,0,0-.22,1.77c0,4,0,8,0,12Z" transform="translate(-265.68 -191.68)" fill="#484848"/></svg>