<svg id="Layer_1" data-name="Layer 1" xmlns="http://www.w3.org/2000/svg" viewBox="0 0 175.46 132.92"><defs><style>.cls-1{fill:#ec6e4c;}</style></defs><path class="cls-1" d="M89.44,68.92H6.22a6,6,0,0,1-.4-12.06H140.56a22.36,22.36,0,1,0-12.39-40.73,6,6,0,0,1-9.55-4,5.76,5.76,0,0,1,2.72-6A33,33,0,0,1,144.61.27C158.33,2,168,9.38,173.08,22.17c8,20.16-5.09,42.83-26.51,46.26a39.58,39.58,0,0,1-6,.47Q115,68.95,89.44,68.92Z"/><path class="cls-1" d="M99,76q13.91,0,27.8,0a28.46,28.46,0,0,1,28.41,24.08c2.49,15-8.06,29.82-23,32.34a27.94,27.94,0,0,1-24.75-7.37,6,6,0,0,1-.48-8.84c2.38-2.49,6-2.46,8.78.05,4.7,4.27,10.17,5.66,16.21,3.75a15.7,15.7,0,0,0,11.13-12.37,16.29,16.29,0,0,0-13.83-19.36,26.75,26.75,0,0,0-3.22-.19c-18.78,0-57.55,0-76.33,0-3.16,0-5.44-1.52-6.29-4.18A6,6,0,0,1,49.25,76C59.16,76,89.06,76,99,76Z"/><path class="cls-1" d="M71.49,49.74c-6,0-32.06,0-38.09,0a6,6,0,0,1-1.18-11.95,9.68,9.68,0,0,1,1.79-.1c11.46,0,42.92,0,54.39,0A10.63,10.63,0,0,0,91.83,17,10.46,10.46,0,0,0,79.9,20.76a7.07,7.07,0,0,1-4,3.07,6,6,0,0,1-6.36-2.31,5.82,5.82,0,0,1-.22-6.74A21.87,21.87,0,0,1,85.26,4.59a22.57,22.57,0,0,1,25.51,18.33c2.5,12.42-6.58,25.11-19.17,26.54a102.87,102.87,0,0,1-10.4.27C78,49.77,74.73,49.74,71.49,49.74Z"/></svg>