<svg id="Layer_1" data-name="Layer 1" xmlns="http://www.w3.org/2000/svg" viewBox="0 0 75.67 49.86"><defs><style>.cls-1{fill:#ec6e4c;}</style></defs><path class="cls-1" d="M100.89,495.54a2,2,0,0,0,0,.24A13.32,13.32,0,0,1,94.11,507a13.11,13.11,0,0,1-4.93,1.67,15.43,15.43,0,0,1-1.67.1H27.18A2.18,2.18,0,0,1,26,508.5a1.6,1.6,0,0,1-.75-1.68,1.67,1.67,0,0,1,1.34-1.35,4.87,4.87,0,0,1,.66,0H86.3c.64,0,1.29,0,1.93-.05a10.7,10.7,0,0,0,3.74-1c.28-.13.53-.32.8-.47a8.33,8.33,0,0,0,1.82-1.47,10.06,10.06,0,0,0,2.83-5.62,8,8,0,0,0,.08-1.7c0-.26,0-.53,0-.79a10.24,10.24,0,0,0-2.08-5.15,10.07,10.07,0,0,0-4.82-3.42,13,13,0,0,0-2.31-.48,8.48,8.48,0,0,0-2,0,9.2,9.2,0,0,0-3.33.93,10.09,10.09,0,0,0-5.53,7.22,11.48,11.48,0,0,0-.19,1.84,1.85,1.85,0,0,1-.36,1.09,1.57,1.57,0,0,1-1.67.61A1.52,1.52,0,0,1,74,495.7a4.81,4.81,0,0,1,0-1.2,13.65,13.65,0,0,1,2.56-7.14A12.79,12.79,0,0,1,82,483a14.22,14.22,0,0,1,3.83-1.09,12.71,12.71,0,0,1,6.08.71,16,16,0,0,1,2.26,1.05A12.89,12.89,0,0,1,97.1,486a13.41,13.41,0,0,1,3.52,6.69,10.06,10.06,0,0,1,.23,2,2.89,2.89,0,0,0,0,.29Z" transform="translate(-25.22 -481.81)"/><path class="cls-1" d="M72.53,531.67l-.63-.09a9.83,9.83,0,0,1-8-6.52,10,10,0,0,1-.52-3,1.67,1.67,0,0,1,1.19-1.73,1.65,1.65,0,0,1,2.16,1.55,6.53,6.53,0,0,0,.93,3.31,6,6,0,0,0,.75,1,6.08,6.08,0,0,0,3.36,1.94,6.33,6.33,0,0,0,5.58-1.43,6.1,6.1,0,0,0,2.13-4,6.36,6.36,0,0,0-5.24-7.13,10.8,10.8,0,0,0-2-.1H39.81a2.92,2.92,0,0,1-.78-.09,1.61,1.61,0,0,1-1.19-1.79,1.68,1.68,0,0,1,1.54-1.46H72.83a10.85,10.85,0,0,1,3.52.56,9.87,9.87,0,0,1,6.36,7.36,9.52,9.52,0,0,1-1,6.45,8.78,8.78,0,0,1-.95,1.47,9.88,9.88,0,0,1-5.86,3.53c-.3.06-.62.08-.93.13l-.21,0Z" transform="translate(-25.22 -481.81)"/><path class="cls-1" d="M46.51,502.93H33.22a3.64,3.64,0,0,1-.81-.07,1.63,1.63,0,0,1-1.29-1.81,1.7,1.7,0,0,1,1.61-1.5H59.66a6.4,6.4,0,0,0,3.23-.86,6.12,6.12,0,0,0,3-4.2,6,6,0,0,0-.29-3.73,7,7,0,0,0-4.68-3.88,6,6,0,0,0-2.35,0A7.39,7.39,0,0,0,55.89,488a5.9,5.9,0,0,0-2.48,4,8.34,8.34,0,0,0-.11,1.11,1.68,1.68,0,0,1-1.71,1.68,1.62,1.62,0,0,1-1.65-1.64,9.26,9.26,0,0,1,2-5.88,9.75,9.75,0,0,1,17.38,4.15,9.78,9.78,0,0,1-6.84,11,10.48,10.48,0,0,1-3,.4Z" transform="translate(-25.22 -481.81)"/></svg>